<svg transform="scale(1)" id="_0019_checklist_1" data-name="0019_checklist_1" xmlns="http://www.w3.org/2000/svg" version="1.1" viewBox="0 0 500 500" class="show_show__wrapper__graphic__5Waiy "><title>React</title><defs><style>
      .cls-1 {
        fill: #101720;
      }

      .cls-1, .cls-2, .cls-3, .cls-4, .cls-5 {
        stroke-width: 0px;
      }

      .cls-2 {
        fill: #ff9c0f;
      }

      .cls-3 {
        fill: #008eb1;
      }

      .cls-4 {
        fill: #fffffe;
      }

      .cls-5 {
        fill: #ff7e6e;
      }
    </style></defs><g id="paper"><g><polygon class="cls-1" points="60.7 98.3 291 64.3 389.8 352.7 148.7 406.2 60.7 98.3"></polygon><path class="cls-1" d="M148.7,406.5c-.1,0-.3,0-.3-.2L60.4,98.4c0,0,0-.2,0-.2s.1-.1.2-.1l230.3-34c.1,0,.3,0,.3.2l98.8,288.4c0,0,0,.2,0,.2,0,0-.1.1-.2.1l-241.1,53.5s0,0,0,0ZM61.1,98.6l87.8,307.3,240.5-53.4-98.6-287.9L61.1,98.6Z"></path></g><g><path class="cls-4" d="M83.4,109.3l199.7-29.5c15.3,9.3,25.3,15.4,40.5,24.7l88.8,259.2-241.1,53.5L83.4,109.3Z"></path><path class="cls-1" d="M171.4,417.5c-.1,0-.3,0-.3-.2L83.1,109.4c0,0,0-.2,0-.2s.1-.1.2-.1l199.7-29.5c0,0,.1,0,.2,0l40.5,24.7c0,0,.1,0,.1.2l88.8,259.2c0,0,0,.2,0,.2,0,0-.1.1-.2.1l-241.1,53.5s0,0,0,0ZM83.8,109.6l87.8,307.3,240.5-53.4-88.7-258.8-40.4-24.6-199.3,29.5Z"></path></g><g><polygon class="cls-3" points="283.1 79.8 291.7 110.8 323.7 104.5 283.1 79.8"></polygon><path class="cls-1" d="M291.7,111.1c-.1,0-.3,0-.3-.2l-8.5-31c0-.1,0-.2.1-.3,0,0,.2,0,.3,0l40.5,24.7c.1,0,.2.2.1.3,0,.1-.1.2-.2.2l-32,6.3s0,0,0,0ZM283.6,80.4l8.2,30,31-6.1-39.2-23.9Z"></path></g><g><polygon class="cls-1" points="291.7 110.8 325.9 110.8 323.7 104.5 291.7 110.8"></polygon><path class="cls-1" d="M325.9,111.1h-34.2c-.2,0-.3-.1-.3-.3,0-.2,0-.3.2-.3l32-6.3c.1,0,.3,0,.3.2l2.2,6.3c0,0,0,.2,0,.3,0,0-.1.1-.2.1ZM294.7,110.5h30.7l-2-5.7-28.8,5.7Z"></path></g><circle class="cls-2" cx="156.3" cy="168.3" r="26.1"></circle><g><polygon class="cls-4" points="141.9 162.1 148.8 155.5 160.3 167.5 178.6 144.8 186.7 151.2 162.6 180 141.9 162.1"></polygon><path class="cls-1" d="M162.6,180.3c0,0-.1,0-.2,0l-20.7-18c0,0-.1-.1-.1-.2,0,0,0-.2,0-.2l6.9-6.5c.1-.1.3-.1.4,0l11.3,11.7,18.1-22.4c.1-.1.3-.1.4,0l8.1,6.4c0,0,.1.1.1.2,0,0,0,.2,0,.2l-24.1,28.9c0,0-.1.1-.2.1,0,0,0,0,0,0ZM142.4,162.1l20.2,17.5,23.7-28.4-7.6-6-18.2,22.5c0,0-.1.1-.2.1,0,0-.2,0-.2,0l-11.3-11.7-6.4,6.1Z"></path></g><g><path class="cls-3" d="M199.1,164.5c-1,0-1.9-.8-2.1-1.8-.2-1.2.6-2.2,1.8-2.4l104.3-15.2c1.1-.2,2.2.6,2.4,1.8.2,1.2-.6,2.2-1.8,2.4l-104.3,15.2c-.1,0-.2,0-.3,0Z"></path><path class="cls-1" d="M199.1,164.8c-1.2,0-2.2-.9-2.4-2.1,0-.6,0-1.3.5-1.8s1-.9,1.6-.9l104.3-15.2c1.3-.2,2.6.7,2.7,2,0,.6,0,1.3-.5,1.8s-1,.9-1.6.9l-104.3,15.2c-.1,0-.2,0-.4,0ZM303.4,145.4c0,0-.2,0-.3,0l-104.3,15.2c-.5,0-.9.3-1.2.7s-.4.9-.3,1.4c.1,1,1.1,1.7,2.1,1.5l104.3-15.2c.5,0,.9-.3,1.2-.7s.4-.9.3-1.4c-.1-.9-.9-1.6-1.8-1.6Z"></path></g><circle class="cls-2" cx="179.5" cy="241.1" r="26.1"></circle><g><polygon class="cls-4" points="165.1 234.9 172 228.4 183.4 240.3 201.8 217.6 209.9 224 185.7 252.9 165.1 234.9"></polygon><path class="cls-1" d="M185.7,253.2c0,0-.1,0-.2,0l-20.7-18c0,0-.1-.1-.1-.2,0,0,0-.2,0-.2l6.9-6.5c.1-.1.3-.1.4,0l11.3,11.7,18.1-22.4c.1-.1.3-.1.4,0l8.1,6.4c0,0,.1.1.1.2,0,0,0,.2,0,.2l-24.1,28.9c0,0-.1.1-.2.1,0,0,0,0,0,0ZM165.5,234.9l20.2,17.5,23.7-28.4-7.6-6-18.2,22.5c0,0-.1.1-.2.1,0,0-.2,0-.2,0l-11.3-11.7-6.4,6.1Z"></path></g><g><path class="cls-3" d="M222.3,237.4c-1,0-1.9-.8-2.1-1.8-.2-1.2.6-2.2,1.8-2.4l104.3-15.2c1.1-.2,2.2.6,2.4,1.8.2,1.2-.6,2.2-1.8,2.4l-104.3,15.2c-.1,0-.2,0-.3,0Z"></path><path class="cls-1" d="M222.3,237.7c-1.2,0-2.2-.9-2.4-2.1-.2-1.3.7-2.6,2-2.7l104.3-15.2c1.3-.2,2.6.7,2.7,2,.2,1.3-.7,2.6-2,2.7l-104.3,15.2c-.1,0-.2,0-.4,0ZM326.5,218.3c0,0-.2,0-.3,0l-104.3,15.2c-1,.1-1.7,1.1-1.5,2.1.1,1,1.1,1.7,2.1,1.5l104.3-15.2c1-.1,1.7-1.1,1.5-2.1-.1-.9-.9-1.6-1.8-1.6Z"></path></g><g><circle class="cls-4" cx="202.6" cy="314" r="26.1"></circle><path class="cls-1" d="M202.6,340.4c-12.2,0-23.2-8.6-25.8-21-3-14.2,6.2-28.2,20.5-31.2,6.9-1.4,13.9,0,19.8,3.8s9.9,9.8,11.3,16.7h0c1.4,6.9,0,13.9-3.8,19.8-3.9,5.9-9.8,9.9-16.7,11.4-1.8.4-3.6.6-5.4.6ZM202.7,288.2c-1.8,0-3.5.2-5.3.5-13.9,2.9-22.9,16.6-20,30.5,2.9,13.9,16.5,22.9,30.5,20,6.7-1.4,12.5-5.3,16.3-11.1,3.8-5.8,5.1-12.6,3.7-19.4h0c-1.4-6.7-5.3-12.5-11.1-16.3-4.3-2.8-9.1-4.2-14.1-4.2Z"></path></g><g><path class="cls-3" d="M245.4,310.2c-1,0-1.9-.8-2.1-1.8-.2-1.2.6-2.2,1.8-2.4l104.3-15.2c1.1-.2,2.2.6,2.4,1.8.2,1.2-.6,2.2-1.8,2.4l-104.3,15.2c-.1,0-.2,0-.3,0Z"></path><path class="cls-1" d="M245.4,310.5c-1.2,0-2.2-.9-2.4-2.1,0-.6,0-1.3.5-1.8s1-.9,1.6-.9l104.3-15.2c1.3-.2,2.6.7,2.7,2,0,.6,0,1.3-.5,1.8s-1,.9-1.6.9l-104.3,15.2c-.1,0-.2,0-.4,0ZM349.7,291.1c0,0-.2,0-.3,0l-104.3,15.2c-.5,0-.9.3-1.2.7s-.4.9-.3,1.4c.1,1,1.1,1.7,2.1,1.5l104.3-15.2c.5,0,.9-.3,1.2-.7s.4-.9.3-1.4c-.1-.9-.9-1.6-1.8-1.6Z"></path></g><path class="cls-5" d="M256.6,113.1c-2.6,0-5-.9-6.9-2.6-2.1-1.9-3.4-4.5-3.5-7.3l-1.7-30c-.2-3.1,2-5.8,5.1-6.3,1.7-.2,3.4.2,4.6,1.3,1.3,1.1,2.1,2.6,2.2,4.3l1.6,28.4c0,.2-.1.3-.3.3-.2,0-.3-.1-.3-.3l-1.6-28.4c0-1.5-.8-2.9-2-3.9-1.2-1-2.7-1.4-4.2-1.2-2.8.4-4.8,2.8-4.6,5.6l1.7,30c.1,2.7,1.3,5.1,3.3,6.9,2,1.8,4.6,2.6,7.2,2.5,2.6-.2,5.1-1.4,6.8-3.4,1.7-2,2.6-4.5,2.4-7.2l-2.3-33.3c-.3-3.9-2.2-7.5-5.2-9.9-3-2.4-7-3.4-10.8-2.8-7,1.1-12.1,7.3-11.7,14.4v1.7c.1.2,0,.3-.2.3-.2,0-.3-.1-.3-.3v-1.7c-.5-7.4,4.7-13.9,12.1-15.1,4-.6,8.1.5,11.2,3,3.2,2.5,5.1,6.3,5.4,10.3l2.3,33.3c.2,2.8-.7,5.5-2.6,7.6-1.8,2.1-4.4,3.4-7.2,3.6-.2,0-.5,0-.7,0Z"></path></g><g id="pen"><g><path class="cls-5" d="M405.9,151.2l-24.8,20.2c.7,2.2,2.5,3.6,3.1,4l24.9-20.3c.5-.4.8-.9.9-1.5s0-1.4-.5-2c-.9-1.1-2.5-1.3-3.6-.4Z"></path><path class="cls-1" d="M384.2,175.7c0,0-.1,0-.2,0-.7-.5-2.5-1.9-3.3-4.1,0-.1,0-.2,0-.3l24.8-20.2c.6-.5,1.3-.7,2.1-.6.8,0,1.4.5,1.9,1.1.5.6.7,1.5.5,2.3-.1.6-.5,1.2-1,1.7l-24.9,20.3c0,0-.1,0-.2,0ZM381.5,171.5c.7,1.8,2.1,3,2.8,3.5l24.7-20.1c.4-.3.7-.8.8-1.3.1-.6,0-1.3-.4-1.8-.4-.5-.9-.8-1.5-.9-.6,0-1.2.1-1.7.5h0l-24.7,20.1ZM405.9,151.2h0,0Z"></path></g><g><path class="cls-1" d="M214.7,311.6l-6.8,4.4c-.3.2-.6-.2-.4-.5l5.6-6.4,1.6,2.5Z"></path><path class="cls-1" d="M207.8,316.3c-.2,0-.3,0-.5-.2-.2-.2-.2-.6,0-.8l5.6-6.4c0,0,.2-.1.3-.1,0,0,.2,0,.2.1l1.6,2.5c0,.1,0,.3,0,.4l-6.8,4.4c-.1,0-.2,0-.3,0ZM213.1,309.5l-5.4,6.1,6.6-4.2-1.2-1.9Z"></path></g><g><path class="cls-5" d="M296.7,256.8l-20.8,17c-.9-.6-2.6-1.9-4.6-3.7-3.1-2.9-6.6-7.2-8.5-12.7l21-17.1c1.8,5.5,5.3,9.7,8.3,12.7,1.5,1.4,2.9,2.5,3.9,3.3.1,0,.2.2.4.3.2.1.4.3.5.4Z"></path><path class="cls-1" d="M275.9,274c0,0-.1,0-.2,0-1.1-.8-2.8-2-4.6-3.8-2.8-2.7-6.6-7.1-8.6-12.9,0-.1,0-.3,0-.3l21-17.1c0,0,.2,0,.3,0,0,0,.2.1.2.2,1.9,5.6,5.5,9.9,8.2,12.5,1.5,1.5,2.9,2.6,3.8,3.3l.5.4c.1,0,.2.2.3.2,0,0,.1.1.1.2,0,0,0,.2-.1.2l-20.8,17c0,0-.1,0-.2,0ZM263.1,257.3c2,5.6,5.6,9.8,8.4,12.4,1.7,1.6,3.3,2.8,4.4,3.6l20.4-16.6s0,0,0,0l-.6-.4c-.9-.7-2.4-1.8-3.9-3.3-2.7-2.6-6.3-6.9-8.2-12.4l-20.5,16.7Z"></path></g><g><path class="cls-2" d="M403.7,166.4c-.5,2.3-1.7,4.5-3.7,6.1l-103.3,84.2c-1-.7-2.8-2-4.7-3.9-3-2.9-6.5-7.2-8.3-12.7l103-83.9c4.6-3.8,11.4-3,15,1.7.5.7,1,1.4,1.3,2.2h0c.9,2,1.1,4.2.7,6.3Z"></path><path class="cls-1" d="M296.7,257.1c0,0-.1,0-.2,0-.7-.5-2.6-1.9-4.8-4-2.8-2.7-6.5-7.1-8.4-12.8,0-.1,0-.2,0-.3l103-83.9c2.3-1.9,5.2-2.7,8.1-2.4,2.9.3,5.5,1.8,7.3,4.2.5.7,1,1.5,1.3,2.2.9,2.1,1.2,4.3.7,6.5,0,0,0,0,0,0-.5,2.5-1.8,4.7-3.8,6.3l-103.3,84.2c0,0-.1,0-.2,0ZM284,240.3c1.9,5.5,5.5,9.7,8.1,12.3,2,1.9,3.7,3.2,4.5,3.8l103.1-84c1.8-1.5,3.1-3.6,3.6-6,.4-2.1.2-4.2-.7-6.1-.3-.7-.7-1.4-1.3-2.1-1.7-2.2-4.1-3.6-6.9-3.9-2.8-.3-5.5.5-7.7,2.2l-102.9,83.8ZM403.7,166.4h0,0Z"></path></g><g><path class="cls-2" d="M275.9,273.7l-42.9,35.3c-2.1,1.7-4.6,2.9-7.3,3.3l-10.8,1.7c-1.7.3-3.3-.7-3.9-2.2-.4-.9-.4-1.9,0-2.8l4.4-10.5c1-2.3,2.5-4.4,4.5-6l42.9-35.3c1.9,5.5,5.5,9.9,8.5,12.7,2,1.9,3.7,3.1,4.6,3.7Z"></path><path class="cls-1" d="M214.3,314.3c-1.5,0-3-.9-3.6-2.4-.4-1-.4-2.1,0-3.1l4.4-10.5c1-2.4,2.6-4.5,4.6-6.1l42.9-35.3c0,0,.2,0,.3,0,0,0,.2,0,.2.2,1.9,5.7,5.7,10,8.5,12.6,1.8,1.7,3.5,3,4.5,3.7,0,0,.1.1.1.2s0,.2-.1.2l-42.9,35.3c-2.2,1.8-4.8,2.9-7.5,3.3l-10.8,1.7c-.2,0-.4,0-.6,0ZM262.6,257.7l-42.6,35c-1.9,1.5-3.4,3.5-4.4,5.8l-4.4,10.5c-.4.9-.3,1.8,0,2.6.6,1.4,2.1,2.2,3.6,2l10.8-1.7c2.6-.4,5.1-1.5,7.2-3.2l42.6-35c-1.1-.8-2.6-2-4.3-3.5-2.8-2.6-6.5-6.9-8.5-12.5Z"></path></g><path class="cls-1" d="M230.9,310.7c0,0-.1,0-.2,0,0,0-9.9-6.1-12.9-16.5,0-.2,0-.3.2-.4.2,0,.3,0,.4.2,2.9,10.1,12.5,16.1,12.6,16.1.1,0,.2.3,0,.4,0,0-.2.1-.3.1Z"></path><path class="cls-1" d="M359.2,173.9c0,0-.2,0-.2-.1-.1-.1,0-.3,0-.4l20.4-16.3c1-.8,2.5-.7,3.4.3l1,1.2c.1.1,0,.3,0,.4-.1.1-.3,0-.4,0l-1-1.2c-.7-.8-1.8-.9-2.6-.2l-20.4,16.3c0,0-.1,0-.2,0Z"></path><path class="cls-1" d="M363.1,202.9c0,0-.1,0-.2,0-2.3-1.6-10.1-7.5-13.2-16.6,0-.2,0-.3.2-.4.2,0,.3,0,.4.2,3.1,9,10.7,14.8,13,16.3.1,0,.2.3,0,.4,0,0-.2.1-.2.1Z"></path><g><path class="cls-1" d="M296.7,256.8l-20.8,17-42.9,35.3c-2.1,1.7-4.6,2.9-7.3,3.3l-10.8,1.7c-1.7.3-3.3-.7-3.9-2.2,4.5-.8,13.1-3,20.6-9,4.5-3.6,20.3-16.7,39.7-32.9,6.6-5.4,13.6-11.3,20.7-17.2,1.5,1.4,2.9,2.5,3.9,3.3.1,0,.2.2.4.3.2.1.4.3.5.4Z"></path><path class="cls-1" d="M214.3,314.3c-1.5,0-3-.9-3.6-2.4,0,0,0-.2,0-.3,0,0,.1-.1.2-.2,4.4-.8,13-3,20.5-8.9,3.7-2.9,15-12.3,29.4-24.3l13.6-11.3c5.6-4.6,11.5-9.5,17.4-14.4.1,0,.3,0,.4,0,1.5,1.5,2.9,2.6,3.8,3.3,0,0,.2.1.2.2l.3.2c.1,0,.2.2.3.2,0,0,.1.1.1.2,0,0,0,.2-.1.2l-20.8,17-42.9,35.3c-2.2,1.8-4.8,2.9-7.5,3.3l-10.8,1.7c-.2,0-.4,0-.6,0ZM211.4,312c.7,1.2,2,1.8,3.4,1.6l10.8-1.7c2.6-.4,5.1-1.5,7.2-3.2l42.9-35.3,20.5-16.7s0,0,0,0l-.3-.2c0,0-.2-.1-.2-.2-.9-.7-2.2-1.7-3.7-3.1-5.9,4.9-11.7,9.7-17.2,14.3l-13.6,11.3c-14.4,12-25.7,21.4-29.4,24.3-7.4,5.8-15.8,8.1-20.4,8.9Z"></path></g><g><path class="cls-1" d="M403.7,166.4c-.5,2.3-1.7,4.5-3.7,6.1l-103.3,84.2c-1-.7-2.8-2-4.7-3.9,22.2-18.3,45.6-37.5,61.3-49.7,35.9-27.7,50.4-36.7,48.4-45.2l1.3,2.2h0c.9,2,1.1,4.2.7,6.3Z"></path><path class="cls-1" d="M296.7,257.1c0,0-.1,0-.2,0-.7-.5-2.6-1.9-4.8-4,0,0,0-.1,0-.2,0,0,0-.2.1-.2,27.8-23.1,47.9-39.3,61.4-49.7,6-4.6,11.4-8.7,16.1-12.3,23.9-18.2,33.8-25.7,32.1-32.5,0-.1,0-.3.2-.3.1,0,.3,0,.4.1l1.3,2.2c.9,2.1,1.2,4.3.8,6.5,0,0,0,0,0,0-.5,2.5-1.8,4.7-3.8,6.3l-103.3,84.2c0,0-.1,0-.2,0ZM292.4,252.8c1.9,1.8,3.5,3,4.3,3.5l103.1-84c1.8-1.5,3.1-3.6,3.6-6,.4-2.1.2-4.2-.7-6.1l-.5-.9c.1,6.9-10,14.6-32.6,31.7-4.8,3.6-10.2,7.7-16.1,12.3-13.4,10.3-33.4,26.5-61.1,49.5ZM403.7,166.4h0,0Z"></path></g></g></svg>