<svg transform="scale(1)" id="_0033_deadline" data-name="0033_deadline" xmlns="http://www.w3.org/2000/svg" version="1.1" viewBox="0 0 500 500" class="show_show__wrapper__graphic__5Waiy "><title>React</title><defs><style>
      .cls-1 {
        fill: #101720;
      }

      .cls-1, .highlight_dark, .orange, .cls-2, .cls-3, .cls-4 {
        stroke-width: 0px;
      }

      .highlight_dark {
        fill: #008fb1;
      }

      .orange {
        fill: #ff9c0f;
      }

      .cls-2 {
        fill: #008eb1;
      }

      .cls-5 {
        fill: none;
        stroke: #101720;
        stroke-linecap: round;
        stroke-linejoin: round;
        stroke-width: .6px;
      }

      .cls-3 {
        fill: #fffffe;
      }

      .cls-4 {
        fill: #ff7e6e;
      }
    </style></defs><g id="monitor"><g><path class="cls-1" d="M293.4,307c-10.2-1.4-24.8-2.3-41-2.3s-30.7.9-41,2.3h-15.2v5.2h0c1.2,3.8,25.9,6.9,56.1,6.9s54.8-3,56.1-6.9h0v-5.2h-15.2Z"></path><path class="cls-1" d="M252.4,319.3c-30.5,0-54.6-3-56.3-6.9,0,0-.1-.1-.1-.2v-5.2c0-.2.1-.3.3-.3h15.2c10.7-1.5,25.3-2.3,41-2.3s30.3.8,41,2.3h15.1c.2,0,.3.1.3.3v5.2c0,.1,0,.2-.1.3-1.9,3.9-25.9,6.9-56.3,6.9ZM196.5,312s0,0,0,0c1,3.2,22.7,6.6,55.8,6.6s54.8-3.5,55.8-6.6c0,0,0,0,0,0v-4.7h-14.9s0,0,0,0c-10.6-1.4-25.5-2.3-41-2.3s-30.4.8-41,2.3h-14.9v4.7Z"></path></g><g><ellipse class="cls-3" cx="252.4" cy="307" rx="56.1" ry="7.2"></ellipse><path class="cls-1" d="M252.4,314.4c-27.7,0-56.4-2.8-56.4-7.5s28.7-7.5,56.4-7.5,56.4,2.8,56.4,7.5-28.7,7.5-56.4,7.5ZM252.4,300.1c-33.4,0-55.8,3.5-55.8,6.9s22.4,6.9,55.8,6.9,55.8-3.5,55.8-6.9-22.4-6.9-55.8-6.9Z"></path></g><g><rect class="cls-2" x="245.5" y="279.3" width="13.6" height="26.8"></rect><path class="cls-1" d="M259.2,306.3h-13.6c-.2,0-.3-.1-.3-.3v-26.8c0-.2.1-.3.3-.3h13.6c.2,0,.3.1.3.3v26.8c0,.2-.1.3-.3.3ZM245.8,305.7h13v-26.2h-13v26.2Z"></path></g><g><rect class="cls-2" x="120.7" y="100.4" width="263.3" height="186.3"></rect><path class="cls-1" d="M384,287H120.7c-.2,0-.3-.1-.3-.3V100.4c0-.2.1-.3.3-.3h263.3c.2,0,.3.1.3.3v186.3c0,.2-.1.3-.3.3ZM121,286.4h262.7V100.7H121v185.7Z"></path></g><g><rect class="cls-3" x="135" y="115.6" width="234.6" height="155.8"></rect><path class="cls-1" d="M369.7,271.8h-234.6c-.2,0-.3-.1-.3-.3V115.6c0-.2.1-.3.3-.3h234.6c.2,0,.3.1.3.3v155.8c0,.2-.1.3-.3.3ZM135.3,271.2h234V115.9h-234v155.2Z"></path></g></g><g id="clock"><g><path class="orange" d="M393.8,267.8c.7-1,.8-2.3.2-3.3-4.7-8.1-17.6-14.3-29.7-6.5-9.6,6.2-10,17.6-9.6,23.1.1,1.8,1.7,3.1,3.4,2.9,7.5-.7,27-3.8,35.7-16.2Z"></path><path class="cls-1" d="M357.7,284.3c-.8,0-1.6-.3-2.2-.8-.7-.6-1.2-1.5-1.2-2.4-1.1-14.2,5.6-20.8,9.7-23.4,6.6-4.2,12.7-4,16.7-3,5.6,1.3,10.7,5,13.4,9.6.7,1.1.6,2.6-.2,3.7h0c-8.7,12.5-28,15.6-35.9,16.4-.1,0-.2,0-.3,0ZM375.9,254.7c-3.3,0-7.3.8-11.5,3.5-4,2.6-10.5,8.9-9.5,22.9,0,.8.4,1.5,1,2,.6.5,1.3.7,2.1.6,7.8-.8,27-3.9,35.5-16.1.6-.9.7-2.1.1-3-2.6-4.5-7.6-8.1-13-9.4s-3-.6-4.8-.6ZM393.8,267.8h0,0Z"></path></g><path class="cls-1" d="M359.3,278.8c-.1,0-.3,0-.3-.2,0-.2,0-.3.2-.4.2,0,21.1-5,31.2-12.7.1-.1.3,0,.4,0,.1.1,0,.3,0,.4-10.2,7.9-31.2,12.8-31.4,12.9,0,0,0,0,0,0Z"></path><g><path class="cls-1" d="M388.5,351.3s43.3,6.9,51.3-25c7.9-31.6-22.6-48.4-41-51.3l-10.3,76.3Z"></path><path class="cls-1" d="M398.2,352.2c-5.7,0-9.7-.6-9.7-.6-.2,0-.3-.2-.3-.3l10.3-76.3c0,0,0-.2.1-.2,0,0,.1,0,.2,0,12.2,2,28.3,9.6,36.7,22.3,5.7,8.7,7.3,18.6,4.6,29.4-4.2,16.6-18,22.6-28.9,24.7-4.7.9-9.3,1.2-13,1.2ZM388.9,351.1c3.8.5,43.2,5.1,50.7-24.8,2.7-10.6,1.2-20.3-4.5-28.9-8.2-12.4-23.9-20-35.9-22l-10.2,75.7Z"></path></g><g><path class="orange" d="M344.3,352.3c-1,0-2-.5-2.5-1.4-.8-1.4-.4-3.2,1-4l17.6-10.3c1.4-.8,3.2-.4,4,1,.8,1.4.4,3.2-1,4l-17.6,10.3c-.5.3-1,.4-1.5.4Z"></path><path class="cls-1" d="M344.3,352.6c-1.1,0-2.2-.6-2.8-1.6-.9-1.5-.4-3.5,1.1-4.4l17.6-10.3c.7-.4,1.6-.6,2.4-.3.8.2,1.5.7,2,1.5.9,1.5.4,3.5-1.1,4.4l-17.6,10.3c-.5.3-1.1.4-1.6.4ZM361.8,336.4c-.5,0-.9.1-1.3.4l-17.6,10.3c-1.2.7-1.7,2.3-.9,3.6.5.8,1.3,1.3,2.2,1.3s.9-.1,1.3-.4l17.6-10.3c1.2-.7,1.7-2.3.9-3.6-.4-.6-.9-1-1.6-1.2-.2,0-.4,0-.7,0Z"></path></g><g><ellipse class="cls-3" cx="388.5" cy="312.4" rx="37.9" ry="38.9"></ellipse><path class="cls-1" d="M388.5,351.6c-21,0-38.2-17.6-38.2-39.2s17.1-39.2,38.2-39.2,38.2,17.6,38.2,39.2-17.1,39.2-38.2,39.2ZM388.5,273.8c-20.7,0-37.6,17.3-37.6,38.6s16.9,38.6,37.6,38.6,37.6-17.3,37.6-38.6-16.9-38.6-37.6-38.6Z"></path></g><g><ellipse class="cls-3" cx="388.5" cy="312.4" rx="32.5" ry="33.4"></ellipse><path class="cls-1" d="M388.5,346.1c-18.1,0-32.8-15.1-32.8-33.7s14.7-33.7,32.8-33.7,32.8,15.1,32.8,33.7-14.7,33.7-32.8,33.7ZM388.5,279.3c-17.8,0-32.2,14.8-32.2,33.1s14.5,33.1,32.2,33.1,32.2-14.8,32.2-33.1-14.5-33.1-32.2-33.1Z"></path></g><g><path class="orange" d="M423.8,369.6c-1,0-2-.5-2.5-1.4l-10.5-17.9c-.8-1.4-.3-3.2,1-4,1.4-.8,3.2-.3,4,1l10.5,17.9c.8,1.4.3,3.2-1,4-.5.3-1,.4-1.5.4Z"></path><path class="cls-1" d="M423.8,369.9c-1.1,0-2.2-.6-2.8-1.6l-10.5-17.9c-.4-.7-.6-1.6-.3-2.4s.7-1.5,1.5-2c1.5-.9,3.5-.4,4.4,1.1l10.5,17.9c.4.7.6,1.6.3,2.4s-.7,1.5-1.5,2c-.5.3-1.1.4-1.6.4ZM413.3,346.1c-.4,0-.9.1-1.3.4-.6.4-1,.9-1.2,1.6s0,1.4.3,2l10.5,17.9c.5.8,1.3,1.3,2.3,1.3s.9-.1,1.3-.4c.6-.4,1-.9,1.2-1.6s0-1.4-.3-2l-10.5-17.9c-.5-.8-1.4-1.3-2.3-1.3Z"></path></g><g><path class="orange" d="M420.3,276.2c-.1-1.2.5-2.4,1.5-3,8.1-4.7,22.4-3.6,29,9.2,5.2,10.1,0,20.3-3.2,24.9-1,1.5-3,1.8-4.4.8-6.2-4.4-21.6-16.8-22.9-31.9Z"></path><path class="cls-1" d="M445,309c-.7,0-1.4-.2-2-.6-6.5-4.6-21.7-17-23-32.1h0c-.1-1.3.5-2.6,1.7-3.3,4.6-2.7,10.9-3.3,16.4-1.7,3.9,1.2,9.4,4,13,11,2.2,4.3,4.8,13.4-3.2,25.2-.5.8-1.3,1.3-2.3,1.5-.2,0-.4,0-.6,0ZM420.6,276.2c1.3,14.9,16.3,27.1,22.8,31.6.6.4,1.4.6,2.1.5.8-.1,1.4-.6,1.9-1.2,7.8-11.6,5.4-20.3,3.2-24.5-3.5-6.8-8.8-9.5-12.6-10.7-5.3-1.6-11.5-.9-15.9,1.6-.9.5-1.5,1.6-1.4,2.7h0Z"></path></g><path class="cls-1" d="M444.9,303c0,0-.1,0-.2,0-.2-.1-15.9-14.9-20.9-26.8,0-.2,0-.3.2-.4.2,0,.3,0,.4.2,4.9,11.8,20.6,26.4,20.7,26.6.1.1.1.3,0,.4,0,0-.1,0-.2,0Z"></path><path class="cls-1" d="M458.3,287c-.2,0-.3-.1-.3-.3-1.1-14.5-15.9-17.2-16.1-17.2-.2,0-.3-.2-.2-.3,0-.2.2-.3.3-.2.2,0,15.4,2.8,16.6,17.7,0,.2-.1.3-.3.3,0,0,0,0,0,0Z"></path><path class="cls-1" d="M461,280.5c-.1,0-.3-.1-.3-.3-.5-3.8-3.6-10.8-12.2-12.8-.2,0-.3-.2-.2-.4s.2-.3.4-.2c8.9,2,12.2,9.3,12.7,13.3,0,.2,0,.3-.3.3,0,0,0,0,0,0Z"></path><path class="cls-1" d="M462.1,272.4c-.1,0-.2,0-.3-.2,0,0-1.8-4.4-6.3-6.2-.2,0-.2-.2-.2-.4,0-.2.2-.2.4-.2,4.8,1.9,6.6,6.4,6.7,6.6,0,.2,0,.3-.2.4,0,0,0,0-.1,0Z"></path><path class="cls-1" d="M353.2,266.6s0,0,0,0c-.2,0-.3-.2-.2-.4,2.9-14.7,18.4-15.6,18.6-15.7.1,0,.3.1.3.3,0,.2-.1.3-.3.3-.2,0-15.2.9-18,15.2,0,.1-.2.2-.3.2Z"></path><path class="cls-1" d="M351.3,259.8s0,0,0,0c-.2,0-.3-.2-.2-.4,1-3.9,5.1-10.7,14.1-11.7.2,0,.3.1.3.3s-.1.3-.3.3c-8.8.9-12.7,7.5-13.6,11.2,0,.1-.2.2-.3.2Z"></path><path class="cls-1" d="M351.2,251.7s0,0-.1,0c-.1,0-.2-.3-.1-.4,0-.2,2.4-4.4,7.4-5.7.2,0,.3,0,.4.2,0,.2,0,.3-.2.4-4.8,1.3-7,5.4-7,5.4,0,.1-.2.2-.3.2Z"></path><path class="cls-1" d="M395.4,287s0,0-.1,0c-.2,0-.2-.2-.2-.4l1.7-4.1c0-.2.2-.2.4-.2.2,0,.2.2.2.4l-1.7,4.1c0,.1-.2.2-.3.2Z"></path><path class="cls-1" d="M385.6,312.4s0,0-.1,0c-.2,0-.2-.2-.2-.4l7.9-19.4c0-.2.2-.2.4-.2.2,0,.2.2.2.4l-7.9,19.4c0,.1-.2.2-.3.2Z"></path><path class="cls-1" d="M378,340.5s0,0-.1,0c-.2,0-.2-.2-.2-.4l1.7-4.1c0-.2.2-.2.4-.2.2,0,.2.2.2.4l-1.7,4.1c0,.1-.2.2-.3.2Z"></path><path class="cls-1" d="M415.8,323s0,0-.1,0l-4.1-1.7c-.2,0-.2-.2-.2-.4,0-.2.2-.2.4-.2l4.1,1.7c.2,0,.2.2.2.4,0,.1-.2.2-.3.2Z"></path><path class="cls-1" d="M401.2,318.5s0,0-.1,0l-13.7-5.6c-.2,0-.2-.2-.2-.4,0-.2.2-.2.4-.2l13.7,5.6c.2,0,.2.2.2.4,0,.1-.2.2-.3.2Z"></path><path class="cls-1" d="M364.8,305.2s0,0-.1,0l-4.1-1.7c-.2,0-.2-.2-.2-.4,0-.2.2-.2.4-.2l4.1,1.7c.2,0,.2.2.2.4,0,.1-.2.2-.3.2Z"></path><g><ellipse class="orange" cx="385.9" cy="311.6" rx="3.6" ry="3.7"></ellipse><path class="cls-1" d="M385.9,315.7c-2.2,0-3.9-1.8-3.9-4s1.8-4,3.9-4,3.9,1.8,3.9,4-1.8,4-3.9,4ZM385.9,308.2c-1.8,0-3.3,1.5-3.3,3.4s1.5,3.4,3.3,3.4,3.3-1.5,3.3-3.4-1.5-3.4-3.3-3.4Z"></path></g></g><g id="note"><g><g><rect class="cls-3" x="303.5" y="269.8" width="36.4" height="40.4"></rect><path class="cls-3" d="M339.8,310.4h-36.4c-.2,0-.3-.1-.3-.3v-40.4c0-.2.1-.3.3-.3h36.4c.2,0,.3.1.3.3v40.4c0,.2-.1.3-.3.3ZM303.8,309.8h35.8v-39.8h-35.8v39.8Z"></path></g><g><circle class="cls-3" cx="334.4" cy="274.3" r="1.6"></circle><path class="cls-3" d="M334.4,276.3c-1.1,0-1.9-.9-1.9-1.9s.9-1.9,1.9-1.9,1.9.9,1.9,1.9-.9,1.9-1.9,1.9ZM334.4,273c-.7,0-1.3.6-1.3,1.3s.6,1.3,1.3,1.3,1.3-.6,1.3-1.3-.6-1.3-1.3-1.3Z"></path></g><path class="cls-3" d="M325.1,281.4h-14.5c-.2,0-.3-.1-.3-.3s.1-.3.3-.3h14.5c.2,0,.3.1.3.3s-.1.3-.3.3Z"></path><path class="cls-3" d="M332.8,288.4h-22.2c-.2,0-.3-.1-.3-.3s.1-.3.3-.3h22.2c.2,0,.3.1.3.3s-.1.3-.3.3Z"></path><path class="cls-3" d="M332.8,295.5h-22.2c-.2,0-.3-.1-.3-.3s.1-.3.3-.3h22.2c.2,0,.3.1.3.3s-.1.3-.3.3Z"></path></g><g><g><rect class="cls-4" x="303.5" y="269.8" width="36.4" height="40.4"></rect><path class="cls-1" d="M339.8,310.4h-36.4c-.2,0-.3-.1-.3-.3v-40.4c0-.2.1-.3.3-.3h36.4c.2,0,.3.1.3.3v40.4c0,.2-.1.3-.3.3ZM303.8,309.8h35.8v-39.8h-35.8v39.8Z"></path></g><g><circle class="cls-2" cx="334.4" cy="274.3" r="1.6"></circle><path class="cls-1" d="M334.4,276.3c-1.1,0-1.9-.9-1.9-1.9s.9-1.9,1.9-1.9,1.9.9,1.9,1.9-.9,1.9-1.9,1.9ZM334.4,273c-.7,0-1.3.6-1.3,1.3s.6,1.3,1.3,1.3,1.3-.6,1.3-1.3-.6-1.3-1.3-1.3Z"></path></g><path class="cls-1" d="M325.1,281.4h-14.5c-.2,0-.3-.1-.3-.3s.1-.3.3-.3h14.5c.2,0,.3.1.3.3s-.1.3-.3.3Z"></path><path class="cls-1" d="M332.8,288.4h-22.2c-.2,0-.3-.1-.3-.3s.1-.3.3-.3h22.2c.2,0,.3.1.3.3s-.1.3-.3.3Z"></path><path class="cls-1" d="M332.8,295.5h-22.2c-.2,0-.3-.1-.3-.3s.1-.3.3-.3h22.2c.2,0,.3.1.3.3s-.1.3-.3.3Z"></path></g><g><g><rect class="cls-5" x="303.5" y="269.8" width="36.4" height="40.4"></rect><path class="cls-5" d="M339.8,310.4h-36.4c-.2,0-.3-.1-.3-.3v-40.4c0-.2.1-.3.3-.3h36.4c.2,0,.3.1.3.3v40.4c0,.2-.1.3-.3.3ZM303.8,309.8h35.8v-39.8h-35.8v39.8Z"></path></g><g><circle class="cls-5" cx="334.4" cy="274.3" r="1.6"></circle><path class="cls-5" d="M334.4,276.3c-1.1,0-1.9-.9-1.9-1.9s.9-1.9,1.9-1.9,1.9.9,1.9,1.9-.9,1.9-1.9,1.9ZM334.4,273c-.7,0-1.3.6-1.3,1.3s.6,1.3,1.3,1.3,1.3-.6,1.3-1.3-.6-1.3-1.3-1.3Z"></path></g><path class="cls-5" d="M325.1,281.4h-14.5c-.2,0-.3-.1-.3-.3s.1-.3.3-.3h14.5c.2,0,.3.1.3.3s-.1.3-.3.3Z"></path><path class="cls-5" d="M332.8,288.4h-22.2c-.2,0-.3-.1-.3-.3s.1-.3.3-.3h22.2c.2,0,.3.1.3.3s-.1.3-.3.3Z"></path><path class="cls-5" d="M332.8,295.5h-22.2c-.2,0-.3-.1-.3-.3s.1-.3.3-.3h22.2c.2,0,.3.1.3.3s-.1.3-.3.3Z"></path></g></g><g id="note-2" data-name="note"><g><g><rect class="cls-3" x="146.1" y="269.8" width="36.4" height="40.4"></rect><path class="cls-3" d="M182.4,310.4h-36.4c-.2,0-.3-.1-.3-.3v-40.4c0-.2.1-.3.3-.3h36.4c.2,0,.3.1.3.3v40.4c0,.2-.1.3-.3.3ZM146.4,309.8h35.8v-39.8h-35.8v39.8Z"></path></g><g><circle class="cls-3" cx="177" cy="274.3" r="1.6"></circle><path class="cls-3" d="M177,276.3c-1.1,0-1.9-.9-1.9-1.9s.9-1.9,1.9-1.9,1.9.9,1.9,1.9-.9,1.9-1.9,1.9ZM177,273c-.7,0-1.3.6-1.3,1.3s.6,1.3,1.3,1.3,1.3-.6,1.3-1.3-.6-1.3-1.3-1.3Z"></path></g><path class="cls-3" d="M167.7,281.4h-14.5c-.2,0-.3-.1-.3-.3s.1-.3.3-.3h14.5c.2,0,.3.1.3.3s-.1.3-.3.3Z"></path><path class="cls-3" d="M175.4,288.4h-22.2c-.2,0-.3-.1-.3-.3s.1-.3.3-.3h22.2c.2,0,.3.1.3.3s-.1.3-.3.3Z"></path><path class="cls-3" d="M175.4,295.5h-22.2c-.2,0-.3-.1-.3-.3s.1-.3.3-.3h22.2c.2,0,.3.1.3.3s-.1.3-.3.3Z"></path></g><g><g><rect class="orange" x="146.1" y="269.8" width="36.4" height="40.4"></rect><path class="cls-1" d="M182.4,310.4h-36.4c-.2,0-.3-.1-.3-.3v-40.4c0-.2.1-.3.3-.3h36.4c.2,0,.3.1.3.3v40.4c0,.2-.1.3-.3.3ZM146.4,309.8h35.8v-39.8h-35.8v39.8Z"></path></g><g><circle class="cls-2" cx="177" cy="274.3" r="1.6"></circle><path class="cls-1" d="M177,276.3c-1.1,0-1.9-.9-1.9-1.9s.9-1.9,1.9-1.9,1.9.9,1.9,1.9-.9,1.9-1.9,1.9ZM177,273c-.7,0-1.3.6-1.3,1.3s.6,1.3,1.3,1.3,1.3-.6,1.3-1.3-.6-1.3-1.3-1.3Z"></path></g><path class="cls-1" d="M167.7,281.4h-14.5c-.2,0-.3-.1-.3-.3s.1-.3.3-.3h14.5c.2,0,.3.1.3.3s-.1.3-.3.3Z"></path><path class="cls-1" d="M175.4,288.4h-22.2c-.2,0-.3-.1-.3-.3s.1-.3.3-.3h22.2c.2,0,.3.1.3.3s-.1.3-.3.3Z"></path><path class="cls-1" d="M175.4,295.5h-22.2c-.2,0-.3-.1-.3-.3s.1-.3.3-.3h22.2c.2,0,.3.1.3.3s-.1.3-.3.3Z"></path></g><g><g><rect class="cls-5" x="146.1" y="269.8" width="36.4" height="40.4"></rect><path class="cls-5" d="M182.4,310.4h-36.4c-.2,0-.3-.1-.3-.3v-40.4c0-.2.1-.3.3-.3h36.4c.2,0,.3.1.3.3v40.4c0,.2-.1.3-.3.3ZM146.4,309.8h35.8v-39.8h-35.8v39.8Z"></path></g><g><circle class="cls-5" cx="177" cy="274.3" r="1.6"></circle><path class="cls-5" d="M177,276.3c-1.1,0-1.9-.9-1.9-1.9s.9-1.9,1.9-1.9,1.9.9,1.9,1.9-.9,1.9-1.9,1.9ZM177,273c-.7,0-1.3.6-1.3,1.3s.6,1.3,1.3,1.3,1.3-.6,1.3-1.3-.6-1.3-1.3-1.3Z"></path></g><path class="cls-5" d="M167.7,281.4h-14.5c-.2,0-.3-.1-.3-.3s.1-.3.3-.3h14.5c.2,0,.3.1.3.3s-.1.3-.3.3Z"></path><path class="cls-5" d="M175.4,288.4h-22.2c-.2,0-.3-.1-.3-.3s.1-.3.3-.3h22.2c.2,0,.3.1.3.3s-.1.3-.3.3Z"></path><path class="cls-5" d="M175.4,295.5h-22.2c-.2,0-.3-.1-.3-.3s.1-.3.3-.3h22.2c.2,0,.3.1.3.3s-.1.3-.3.3Z"></path></g></g><g id="plant"><path class="cls-1" d="M80.7,269.9c-.2,0-.3-.1-.3-.3v-98.3c0-.2.1-.3.3-.3s.3.1.3.3v98.3c0,.2-.1.3-.3.3Z"></path><g><polygon class="orange" points="117.4 265.2 113 281.6 111.8 286.2 99.7 331.1 62.2 331.1 44 265.2 117.4 265.2"></polygon><path class="cls-1" d="M99.7,331.4h-37.6c-.1,0-.3,0-.3-.2l-18.2-65.9c0,0,0-.2,0-.3,0,0,.1-.1.2-.1h73.4c0,0,.2,0,.2.1,0,0,0,.2,0,.3l-17.7,65.9c0,.1-.2.2-.3.2ZM62.4,330.8h37.1l17.5-65.3H44.4l18,65.3Z"></path></g><path class="highlight_dark" d="M78.9,330.8c5.1-1.3,9.6-4.4,13-9.2,6.2-8.5,7.7-20.5,6.1-25.4-2.2-6.5-18.7-12.3-24.9-14.2h29.8c.2-.2,5.6-4,5.7-7.8,0-1.4-.6-2.6-1.8-3.6-3.3-2.7-18.7-4.2-30.5-5h40.5l-5.4,20.3v.2c0,0-12,44.7-12,44.7h-20.5Z"></path><g><polygon class="cls-1" points="113 281.6 111.8 286.2 111.8 286.2 82.4 281.6 113 281.6"></polygon><path class="cls-1" d="M111.8,286.5l-29.5-4.6c-.2,0-.3-.2-.3-.3,0-.2.1-.3.3-.3h30.6c0,0,.2,0,.2.1,0,0,0,.2,0,.3l-1.2,4.6c0,.1-.2.2-.3.2ZM86.2,281.9l25.3,3.9,1.1-3.9h-26.4Z"></path></g><path class="cls-1" d="M82.4,281.9h-18.4c-.2,0-.3-.1-.3-.3s.1-.3.3-.3h18.4c.2,0,.3.1.3.3s-.1.3-.3.3Z"></path><g><path class="cls-2" d="M80.7,247s12.5-25.8,32.1-45.4c7.2-7.2,12.5-9.1,15.8-7.8,11.9,4.7-1.8,51.4-47.9,53.2Z"></path><path class="cls-1" d="M80.7,247.3c-.1,0-.2,0-.3-.1,0,0,0-.2,0-.3.1-.3,12.7-26.1,32.1-45.5,6.6-6.6,12.3-9.4,16.1-7.9,3.5,1.4,5,6.5,3.9,13.2-1.5,8.9-7,18.4-14.7,25.6-6.8,6.4-18.8,14.2-37.2,14.9h0ZM126.4,193.7c-3.5,0-8.1,2.8-13.4,8.1-17.9,17.9-30,41.3-31.8,44.9,17.3-.9,46-12.4,50.7-40,1.1-6.5-.2-11.3-3.5-12.6-.6-.2-1.3-.4-2-.4Z"></path></g><path class="orange" d="M82.6,246.6c4.4-2,16.3-8.2,28.6-19.6,14.9-13.9,19.4-27,18-32.4,2.7,1.7,3.7,6.2,2.7,12.1-2.5,14.5-18.1,37.8-49.3,39.9Z"></path><g><path class="cls-2" d="M80.7,220.2s-10.3-21.3-26.4-37.4c-5.9-5.9-10.3-7.5-13-6.4-9.8,3.9,1.4,42.4,39.4,43.8Z"></path><path class="cls-1" d="M80.7,220.5h0c-15.2-.6-25-7-30.7-12.3-6.3-5.9-10.8-13.9-12.1-21.2-1-5.6.3-9.8,3.2-11,3.1-1.3,7.9,1,13.3,6.5,16,16,26.4,37.3,26.5,37.5,0,0,0,.2,0,.3,0,0-.1.1-.3.1ZM43,176.4c-.6,0-1.1,0-1.6.3-2.7,1.1-3.7,5-2.8,10.3,3.9,22.7,27.4,32.2,41.7,32.9-1.6-3.2-11.5-22.2-26.2-36.9-4.4-4.4-8.2-6.7-11-6.7Z"></path></g><path class="orange" d="M78.9,219.8c-13.9-1-23.1-7-28.4-12-6.2-5.9-10.7-13.6-11.9-20.8-.8-4.7,0-8.4,2.1-9.8-1,4.6,2.7,15.3,14.9,26.6,9.9,9.2,19.5,14.2,23.3,16Z"></path><g><path class="cls-2" d="M80.7,193.4s9.8-20.2,25.1-35.5c5.6-5.6,9.8-7.1,12.3-6.1,9.3,3.7-1.4,40.2-37.4,41.6Z"></path><path class="cls-1" d="M80.7,193.7c-.1,0-.2,0-.3-.1,0,0,0-.2,0-.3,0-.2,10-20.4,25.2-35.6,5.2-5.2,9.7-7.4,12.7-6.2,2.8,1.1,4,5.1,3.1,10.4-1.2,6.9-5.5,14.5-11.5,20.1-5.3,5-14.7,11.1-29.1,11.7h0ZM116.5,151.8c-2.7,0-6.3,2.2-10.5,6.3-13.9,13.9-23.3,31.9-24.8,35,13.5-.7,35.8-9.7,39.5-31.3.9-5-.2-8.8-2.7-9.8-.5-.2-1-.3-1.6-.3Z"></path></g><path class="orange" d="M82.6,193c3.7-1.8,12.7-6.5,22-15.2,11.5-10.7,15.1-20.9,14.2-25.3,2,1.4,2.7,4.8,1.9,9.3-1.2,6.8-5.4,14.2-11.3,19.7-5,4.7-13.7,10.4-26.8,11.4Z"></path></g><g id="calendar"><g><rect class="cls-3" x="160.8" y="171" width="183.1" height="82.3"></rect><path class="cls-1" d="M343.9,253.5h-183.1c-.2,0-.3-.1-.3-.3v-82.3c0-.2.1-.3.3-.3h183.1c.2,0,.3.1.3.3v82.3c0,.2-.1.3-.3.3ZM161.1,252.9h182.5v-81.7h-182.5v81.7Z"></path></g><g><rect class="orange" x="160.8" y="143.6" width="183.1" height="27.4"></rect><path class="cls-1" d="M343.9,171.3h-183.1c-.2,0-.3-.1-.3-.3v-27.4c0-.2.1-.3.3-.3h183.1c.2,0,.3.1.3.3v27.4c0,.2-.1.3-.3.3ZM161.1,170.7h182.5v-26.8h-182.5v26.8Z"></path></g><rect class="highlight_dark" x="325.8" y="152.9" width="26.7" height="8.8" transform="translate(496.4 -181.9) rotate(90)"></rect><g><g><g><rect class="cls-3" x="177.9" y="179.3" width="20" height="20"></rect><path class="cls-3" d="M197.8,199.6h-20c-.2,0-.3-.1-.3-.3v-20c0-.2.1-.3.3-.3h20c.2,0,.3.1.3.3v20c0,.2-.1.3-.3.3ZM178.2,199h19.4v-19.4h-19.4v19.4Z"></path></g><g><rect class="cls-3" x="220.8" y="179.3" width="20" height="20"></rect><path class="cls-3" d="M240.8,199.6h-20c-.2,0-.3-.1-.3-.3v-20c0-.2.1-.3.3-.3h20c.2,0,.3.1.3.3v20c0,.2-.1.3-.3.3ZM221.1,199h19.4v-19.4h-19.4v19.4Z"></path></g><g><rect class="cls-3" x="263.8" y="179.3" width="20" height="20"></rect><path class="cls-3" d="M283.8,199.6h-20c-.2,0-.3-.1-.3-.3v-20c0-.2.1-.3.3-.3h20c.2,0,.3.1.3.3v20c0,.2-.1.3-.3.3ZM264.1,199h19.4v-19.4h-19.4v19.4Z"></path></g><g><rect class="cls-3" x="306.8" y="179.3" width="20" height="20"></rect><path class="cls-3" d="M326.8,199.6h-20c-.2,0-.3-.1-.3-.3v-20c0-.2.1-.3.3-.3h20c.2,0,.3.1.3.3v20c0,.2-.1.3-.3.3ZM307.1,199h19.4v-19.4h-19.4v19.4Z"></path></g><g><rect class="cls-3" x="177.9" y="220.2" width="20" height="20"></rect><path class="cls-3" d="M197.8,240.5h-20c-.2,0-.3-.1-.3-.3v-20c0-.2.1-.3.3-.3h20c.2,0,.3.1.3.3v20c0,.2-.1.3-.3.3ZM178.2,239.9h19.4v-19.4h-19.4v19.4Z"></path></g><g><rect class="cls-3" x="220.8" y="220.2" width="20" height="20"></rect><path class="cls-3" d="M240.8,240.5h-20c-.2,0-.3-.1-.3-.3v-20c0-.2.1-.3.3-.3h20c.2,0,.3.1.3.3v20c0,.2-.1.3-.3.3ZM221.1,239.9h19.4v-19.4h-19.4v19.4Z"></path></g><g><rect class="cls-3" x="263.8" y="220.2" width="20" height="20"></rect><path class="cls-3" d="M283.8,240.5h-20c-.2,0-.3-.1-.3-.3v-20c0-.2.1-.3.3-.3h20c.2,0,.3.1.3.3v20c0,.2-.1.3-.3.3ZM264.1,239.9h19.4v-19.4h-19.4v19.4Z"></path></g><g><rect class="cls-3" x="306.8" y="220.2" width="20" height="20"></rect><path class="cls-3" d="M326.8,240.5h-20c-.2,0-.3-.1-.3-.3v-20c0-.2.1-.3.3-.3h20c.2,0,.3.1.3.3v20c0,.2-.1.3-.3.3ZM307.1,239.9h19.4v-19.4h-19.4v19.4Z"></path></g></g><g><g><rect class="cls-3" x="177.9" y="179.3" width="20" height="20"></rect><path class="cls-1" d="M197.8,199.6h-20c-.2,0-.3-.1-.3-.3v-20c0-.2.1-.3.3-.3h20c.2,0,.3.1.3.3v20c0,.2-.1.3-.3.3ZM178.2,199h19.4v-19.4h-19.4v19.4Z"></path></g><g><rect class="cls-3" x="220.8" y="179.3" width="20" height="20"></rect><path class="cls-1" d="M240.8,199.6h-20c-.2,0-.3-.1-.3-.3v-20c0-.2.1-.3.3-.3h20c.2,0,.3.1.3.3v20c0,.2-.1.3-.3.3ZM221.1,199h19.4v-19.4h-19.4v19.4Z"></path></g><g><rect class="cls-3" x="263.8" y="179.3" width="20" height="20"></rect><path class="cls-1" d="M283.8,199.6h-20c-.2,0-.3-.1-.3-.3v-20c0-.2.1-.3.3-.3h20c.2,0,.3.1.3.3v20c0,.2-.1.3-.3.3ZM264.1,199h19.4v-19.4h-19.4v19.4Z"></path></g><g><rect class="cls-3" x="306.8" y="179.3" width="20" height="20"></rect><path class="cls-1" d="M326.8,199.6h-20c-.2,0-.3-.1-.3-.3v-20c0-.2.1-.3.3-.3h20c.2,0,.3.1.3.3v20c0,.2-.1.3-.3.3ZM307.1,199h19.4v-19.4h-19.4v19.4Z"></path></g><g><rect class="cls-3" x="177.9" y="220.2" width="20" height="20"></rect><path class="cls-1" d="M197.8,240.5h-20c-.2,0-.3-.1-.3-.3v-20c0-.2.1-.3.3-.3h20c.2,0,.3.1.3.3v20c0,.2-.1.3-.3.3ZM178.2,239.9h19.4v-19.4h-19.4v19.4Z"></path></g><g><rect class="cls-3" x="220.8" y="220.2" width="20" height="20"></rect><path class="cls-1" d="M240.8,240.5h-20c-.2,0-.3-.1-.3-.3v-20c0-.2.1-.3.3-.3h20c.2,0,.3.1.3.3v20c0,.2-.1.3-.3.3ZM221.1,239.9h19.4v-19.4h-19.4v19.4Z"></path></g><g><rect class="cls-3" x="263.8" y="220.2" width="20" height="20"></rect><path class="cls-1" d="M283.8,240.5h-20c-.2,0-.3-.1-.3-.3v-20c0-.2.1-.3.3-.3h20c.2,0,.3.1.3.3v20c0,.2-.1.3-.3.3ZM264.1,239.9h19.4v-19.4h-19.4v19.4Z"></path></g><g><rect class="cls-4" x="306.8" y="220.2" width="20" height="20"></rect><path class="cls-1" d="M326.8,240.5h-20c-.2,0-.3-.1-.3-.3v-20c0-.2.1-.3.3-.3h20c.2,0,.3.1.3.3v20c0,.2-.1.3-.3.3ZM307.1,239.9h19.4v-19.4h-19.4v19.4Z"></path></g></g><g><g><rect class="cls-5" x="177.9" y="179.3" width="20" height="20"></rect><path class="cls-5" d="M197.8,199.6h-20c-.2,0-.3-.1-.3-.3v-20c0-.2.1-.3.3-.3h20c.2,0,.3.1.3.3v20c0,.2-.1.3-.3.3ZM178.2,199h19.4v-19.4h-19.4v19.4Z"></path></g><g><rect class="cls-5" x="220.8" y="179.3" width="20" height="20"></rect><path class="cls-5" d="M240.8,199.6h-20c-.2,0-.3-.1-.3-.3v-20c0-.2.1-.3.3-.3h20c.2,0,.3.1.3.3v20c0,.2-.1.3-.3.3ZM221.1,199h19.4v-19.4h-19.4v19.4Z"></path></g><g><rect class="cls-5" x="263.8" y="179.3" width="20" height="20"></rect><path class="cls-5" d="M283.8,199.6h-20c-.2,0-.3-.1-.3-.3v-20c0-.2.1-.3.3-.3h20c.2,0,.3.1.3.3v20c0,.2-.1.3-.3.3ZM264.1,199h19.4v-19.4h-19.4v19.4Z"></path></g><g><rect class="cls-5" x="306.8" y="179.3" width="20" height="20"></rect><path class="cls-5" d="M326.8,199.6h-20c-.2,0-.3-.1-.3-.3v-20c0-.2.1-.3.3-.3h20c.2,0,.3.1.3.3v20c0,.2-.1.3-.3.3ZM307.1,199h19.4v-19.4h-19.4v19.4Z"></path></g><g><rect class="cls-5" x="177.9" y="220.2" width="20" height="20"></rect><path class="cls-5" d="M197.8,240.5h-20c-.2,0-.3-.1-.3-.3v-20c0-.2.1-.3.3-.3h20c.2,0,.3.1.3.3v20c0,.2-.1.3-.3.3ZM178.2,239.9h19.4v-19.4h-19.4v19.4Z"></path></g><g><rect class="cls-5" x="220.8" y="220.2" width="20" height="20"></rect><path class="cls-5" d="M240.8,240.5h-20c-.2,0-.3-.1-.3-.3v-20c0-.2.1-.3.3-.3h20c.2,0,.3.1.3.3v20c0,.2-.1.3-.3.3ZM221.1,239.9h19.4v-19.4h-19.4v19.4Z"></path></g><g><rect class="cls-5" x="263.8" y="220.2" width="20" height="20"></rect><path class="cls-5" d="M283.8,240.5h-20c-.2,0-.3-.1-.3-.3v-20c0-.2.1-.3.3-.3h20c.2,0,.3.1.3.3v20c0,.2-.1.3-.3.3ZM264.1,239.9h19.4v-19.4h-19.4v19.4Z"></path></g><g><rect class="cls-5" x="306.8" y="220.2" width="20" height="20"></rect><path class="cls-5" d="M326.8,240.5h-20c-.2,0-.3-.1-.3-.3v-20c0-.2.1-.3.3-.3h20c.2,0,.3.1.3.3v20c0,.2-.1.3-.3.3ZM307.1,239.9h19.4v-19.4h-19.4v19.4Z"></path></g></g></g><path class="cls-1" d="M245.6,157.5c-1.3,0-1.9-1.4-2.1-2.7-.4-2.8,0-5.9,1.1-9.7,1.1-3.6,2.5-6.2,4.3-8.3.4-.4.8-.8,1.1-1.2,0-.2-.2-.4-.3-.7-.7-1.1-1.7-1.8-2.8-1.9h-.3c-2.3,0-4.1,1.2-5.6,2.7.3.9.5,1.9.6,2.7.7,6-.6,12.2-3.7,17.4-.4.7-1.1,1.6-2,1.6,0,0,0,0,0,0-1.3,0-1.9-1.4-2.1-2.7-.4-2.8,0-5.9,1.1-9.7,1.1-3.6,2.5-6.2,4.3-8.3.4-.4.8-.8,1.1-1.2,0-.2-.2-.4-.3-.7-.7-1.1-1.7-1.8-2.8-1.9h-.3c-2.3,0-4.1,1.2-5.6,2.7.3.9.5,1.9.6,2.7.7,6-.6,12.2-3.7,17.4-.4.7-1.1,1.6-2,1.6-1.3,0-2-1.4-2.2-2.7-.4-2.8,0-5.9,1.1-9.7,1.1-3.6,2.5-6.2,4.3-8.3.4-.4.8-.8,1.1-1.2,0-.2-.2-.4-.3-.7-.7-1.1-1.7-1.8-2.8-1.9h-.3s0,0,0,0c-2.3,0-4,1.2-5.6,2.7.3.9.5,1.9.6,2.7.7,6-.6,12.2-3.7,17.4-.4.7-1.1,1.6-2,1.6-1.3,0-2-1.4-2.2-2.7-.4-2.8,0-5.9,1.1-9.7,1.1-3.6,2.5-6.2,4.3-8.3.4-.4.8-.8,1.1-1.2,0-.2-.2-.4-.3-.7-.7-1.1-1.7-1.8-2.8-1.9h-.3s0,0,0,0c-2.3,0-4,1.2-5.6,2.7.3.9.5,1.9.6,2.7.7,6-.6,12.2-3.7,17.4-.4.7-1.1,1.6-2,1.6-1.3,0-2-1.4-2.2-2.7-.4-2.8,0-5.9,1.1-9.7,1.1-3.6,2.5-6.2,4.3-8.3.4-.4.8-.8,1.1-1.2,0-.2-.2-.4-.3-.7-.7-1.1-1.7-1.8-2.8-1.9h-.3s0,0,0,0c-2.3,0-4,1.2-5.6,2.7.3.9.5,1.9.6,2.7.7,6-.6,12.2-3.7,17.4-.4.7-1.1,1.6-2,1.6-1.3,0-2-1.4-2.2-2.7-.4-2.8,0-5.9,1.1-9.7,1.1-3.6,2.5-6.2,4.3-8.3.4-.4.8-.8,1.1-1.2,0-.2-.2-.4-.3-.7-.7-1.1-1.7-1.8-2.8-1.9h-.3s0,0,0,0c-2.3,0-4,1.2-5.6,2.7.3.9.5,1.9.6,2.7.7,6-.6,12.2-3.7,17.4-.4.7-1.1,1.6-2,1.6-1.3,0-2-1.4-2.2-2.7-.4-2.8,0-5.9,1.1-9.7,1.1-3.6,2.5-6.2,4.3-8.3.4-.4.8-.8,1.1-1.2,0-.2-.2-.4-.3-.7-.7-1.1-1.7-1.8-2.8-1.9h-.3s0,0,0,0c-3,0-5.1,2.1-7,4.2-1.5,1.6-2.6,3.7-3.6,6.4,0,.2-.2.2-.4.2-.2,0-.2-.2-.2-.4,1-2.7,2.2-4.9,3.7-6.6,2-2.2,4.2-4.4,7.4-4.4s0,0,0,0h.3c1.3.1,2.5,1,3.3,2.2,0,.2.2.3.3.5,1.6-1.5,3.4-2.7,5.8-2.7s0,0,0,0h.3c1.3.1,2.5,1,3.3,2.2,0,.2.2.3.3.5,1.6-1.5,3.4-2.7,5.8-2.7s0,0,0,0h.3c1.3.1,2.5,1,3.3,2.2,0,.2.2.3.3.5,1.6-1.5,3.4-2.7,5.8-2.7s0,0,0,0h.3c1.3.1,2.5,1,3.3,2.2,0,.2.2.3.3.5,1.6-1.5,3.4-2.7,5.8-2.7s0,0,0,0h.3c1.3.1,2.5,1,3.3,2.2,0,.2.2.3.3.5,1.6-1.5,3.4-2.7,5.8-2.7s0,0,0,0h.3c1.3.1,2.5,1,3.3,2.2,0,.2.2.3.3.5,1.6-1.5,3.4-2.7,5.8-2.7s0,0,0,0h.3c1.3.1,2.5,1,3.3,2.2,0,.2.2.3.3.5,1.6-1.5,3.4-2.7,5.8-2.7s0,0,0,0h.3c1.3.1,2.5,1,3.3,2.2,0,.2.2.3.3.5,1.6-1.5,3.4-2.7,5.8-2.7s0,0,0,0h.3c1.3.1,2.5,1,3.3,2.2,0,.2.2.3.3.5,1.6-1.5,3.4-2.7,5.8-2.7s0,0,0,0h.3c1.3.1,2.5,1,3.3,2.2,0,.2.2.3.3.5,1.6-1.5,3.4-2.7,5.8-2.7s0,0,0,0h.3c1.3.1,2.5,1,3.3,2.2,0,.2.2.3.3.5,1.6-1.5,3.4-2.7,5.8-2.7s0,0,0,0h.3c1.3.1,2.5,1,3.3,2.2,0,.2.2.3.3.5,1.6-1.5,3.4-2.7,5.8-2.7s0,0,0,0h.3c1.3.1,2.5,1,3.3,2.2,0,.2.2.3.3.5,1.6-1.5,3.4-2.7,5.8-2.7s0,0,0,0h.3c1.3.1,2.5,1,3.3,2.2,0,.2.2.3.3.5,1.6-1.5,3.4-2.7,5.8-2.7s0,0,0,0h.3c1.3.1,2.5,1,3.3,2.2.7,1.2,1,2.6,1.1,3.8.2,1.7.3,3.4.1,5.1,0,.2-.2.3-.3.3-.2,0-.3-.2-.3-.3.1-1.7,0-3.3-.1-5-.1-1.1-.4-2.5-1-3.6-.7-1.1-1.7-1.8-2.8-1.9h-.3s0,0,0,0c-2.3,0-4,1.2-5.6,2.7.3.9.5,1.9.6,2.7.7,6-.6,12.2-3.7,17.4-.4.7-1.1,1.6-2,1.6-1.3,0-2-1.4-2.2-2.7-.4-2.8,0-5.9,1.1-9.7,1.1-3.6,2.5-6.2,4.3-8.3.4-.4.8-.8,1.1-1.2,0-.2-.2-.4-.3-.7-.7-1.1-1.7-1.8-2.8-1.9h-.3s0,0,0,0c-2.3,0-4,1.2-5.6,2.7.3.9.5,1.9.6,2.7.7,6-.6,12.2-3.7,17.4-.4.7-1.1,1.6-2,1.6-1.3,0-2-1.4-2.2-2.7-.4-2.8,0-5.9,1.1-9.7,1.1-3.6,2.5-6.2,4.3-8.3.4-.4.8-.8,1.1-1.2,0-.2-.2-.4-.3-.7-.7-1.1-1.7-1.8-2.8-1.9h-.3c-2.3,0-4.1,1.2-5.6,2.7.3.9.5,1.9.6,2.7.7,6-.6,12.2-3.7,17.4-.4.7-1.1,1.6-2,1.6-1.3,0-2-1.4-2.2-2.7-.4-2.8,0-5.9,1.1-9.7,1.1-3.6,2.5-6.2,4.3-8.3.4-.4.8-.8,1.1-1.2,0-.2-.2-.4-.3-.7-.7-1.1-1.7-1.8-2.8-1.9h-.3c-2.3,0-4.1,1.2-5.6,2.7.3.9.5,1.9.6,2.7.7,6-.6,12.2-3.7,17.4-.4.7-1.1,1.6-2,1.6-1.3,0-2-1.4-2.2-2.7-.4-2.8,0-5.9,1.1-9.7,1.1-3.6,2.5-6.2,4.3-8.3.4-.4.8-.8,1.1-1.2,0-.2-.2-.4-.3-.7-.7-1.1-1.7-1.8-2.8-1.9h-.3s0,0,0,0c-2.3,0-4,1.2-5.6,2.7.3.9.5,1.9.6,2.7.7,6-.6,12.2-3.7,17.4-.4.7-1.1,1.6-2,1.6-1.3,0-2-1.4-2.2-2.7-.4-2.8,0-5.9,1.1-9.7,1.1-3.6,2.5-6.2,4.3-8.3.4-.4.8-.8,1.1-1.2,0-.2-.2-.4-.3-.7-.7-1.1-1.7-1.8-2.8-1.9h-.3c-2.3,0-4.1,1.2-5.6,2.7.3.9.5,1.9.6,2.7.7,6-.6,12.2-3.7,17.4-.4.7-1.1,1.6-2,1.6-1.3,0-2-1.4-2.2-2.7-.4-2.8,0-5.9,1.1-9.7,1.1-3.6,2.5-6.2,4.3-8.3.4-.4.8-.8,1.1-1.2,0-.2-.2-.4-.3-.7-.7-1.1-1.7-1.8-2.8-1.9h-.3c-2.3,0-4.1,1.2-5.6,2.7.3.9.5,1.9.6,2.7.7,6-.6,12.2-3.7,17.4-.4.7-1.1,1.6-2,1.6-1.3,0-2-1.4-2.2-2.7-.4-2.8,0-5.9,1.1-9.7,1.1-3.6,2.5-6.2,4.3-8.3.4-.4.8-.8,1.1-1.2,0-.2-.2-.4-.3-.7-.7-1.1-1.7-1.8-2.8-1.9h-.3s0,0,0,0c-2.3,0-4,1.2-5.6,2.7.3.9.5,1.9.6,2.7.7,6-.6,12.2-3.7,17.4-.4.7-1.1,1.6-2,1.6,0,0,0,0,0,0ZM299.3,136.3c-.3.3-.6.7-.9,1-1.8,2-3.1,4.5-4.2,8-1.2,3.7-1.5,6.7-1.1,9.4.1.8.6,2.1,1.5,2.1h0c.7,0,1.2-.7,1.5-1.3,3.1-5.1,4.3-11.1,3.6-17,0-.7-.2-1.5-.5-2.3ZM289.5,136.3c-.3.3-.6.7-.9,1-1.8,2-3.1,4.5-4.2,8-1.2,3.7-1.5,6.7-1.1,9.4.1.8.6,2.1,1.5,2.1h0c.7,0,1.2-.7,1.5-1.3,3.1-5.1,4.3-11.1,3.6-17,0-.7-.2-1.5-.5-2.3ZM279.7,136.3c-.3.3-.6.7-.9,1-1.8,2-3.1,4.5-4.2,8-1.2,3.7-1.5,6.7-1.1,9.4.1.8.6,2.1,1.5,2.1h0c.7,0,1.2-.7,1.5-1.3,3.1-5.1,4.3-11.1,3.6-17,0-.7-.2-1.5-.5-2.3ZM269.9,136.3c-.3.3-.6.7-.9,1-1.8,2-3.1,4.5-4.2,8-1.2,3.7-1.5,6.7-1.1,9.4.1.8.6,2.1,1.5,2.1h0c.7,0,1.2-.7,1.5-1.3,3.1-5.1,4.3-11.1,3.6-17,0-.7-.2-1.5-.5-2.3ZM260.1,136.3c-.3.3-.6.7-.9,1-1.8,2-3.1,4.5-4.2,8-1.2,3.7-1.5,6.7-1.1,9.4.1.8.6,2.1,1.5,2.1h0c.7,0,1.2-.7,1.5-1.3,3.1-5.1,4.3-11.1,3.6-17,0-.7-.2-1.5-.5-2.3ZM250.3,136.3c-.3.3-.6.7-.9,1-1.8,2-3.1,4.5-4.2,8-1.2,3.7-1.5,6.7-1.1,9.4.1.8.6,2.1,1.5,2.1.7,0,1.2-.7,1.5-1.3,3.1-5.1,4.3-11.1,3.6-17,0-.7-.2-1.5-.5-2.3ZM240.5,136.3c-.3.3-.6.7-.9,1-1.8,2-3.1,4.5-4.2,8-1.2,3.7-1.5,6.7-1.1,9.4.1.8.6,2.1,1.5,2.1.7,0,1.2-.7,1.5-1.3,3.1-5.1,4.3-11.1,3.6-17,0-.7-.2-1.5-.5-2.3ZM230.7,136.3c-.3.3-.6.7-.9,1-1.8,2-3.1,4.5-4.2,8-1.2,3.7-1.5,6.7-1.1,9.4.1.8.6,2.1,1.5,2.1h0c.7,0,1.2-.7,1.5-1.3,3.1-5.1,4.3-11.1,3.6-17,0-.7-.2-1.5-.5-2.3ZM220.9,136.3c-.3.3-.6.7-.9,1-1.8,2-3.1,4.5-4.2,8-1.2,3.7-1.5,6.7-1.1,9.4.1.8.6,2.2,1.5,2.1.7,0,1.2-.7,1.5-1.3,3.1-5.1,4.3-11.1,3.6-17,0-.7-.2-1.5-.5-2.3ZM211,136.3c-.3.3-.6.7-.9,1-1.8,2-3.1,4.5-4.2,8-1.2,3.7-1.5,6.7-1.1,9.4.1.8.6,2.2,1.5,2.1.7,0,1.2-.7,1.5-1.3,3.1-5.1,4.3-11.1,3.6-17,0-.7-.2-1.5-.5-2.3ZM201.2,136.3c-.3.3-.6.7-.9,1-1.8,2-3.1,4.5-4.2,8-1.2,3.7-1.5,6.7-1.1,9.4.1.8.6,2.2,1.5,2.1.7,0,1.2-.7,1.5-1.3,3.1-5.1,4.3-11.1,3.6-17,0-.7-.2-1.5-.5-2.3ZM318.9,136.3c-.3.3-.6.7-.9,1-1.8,2-3.1,4.5-4.2,8-1.2,3.7-1.5,6.7-1.1,9.4.1.8.6,2.1,1.5,2.1h0c.7,0,1.2-.7,1.5-1.3,3.1-5.1,4.3-11.1,3.6-17,0-.7-.2-1.5-.5-2.3ZM309.1,136.3c-.3.3-.6.7-.9,1-1.8,2-3.1,4.5-4.2,8-1.2,3.7-1.5,6.7-1.1,9.4.1.8.6,2.1,1.5,2.1h0c.7,0,1.2-.7,1.5-1.3,3.1-5.1,4.3-11.1,3.6-17,0-.7-.2-1.5-.5-2.3ZM191.4,136.3c-.3.3-.6.7-.9,1-1.8,2-3.1,4.5-4.2,8-1.2,3.7-1.5,6.7-1.1,9.4.1.8.6,2.1,1.5,2.1h0c.7,0,1.2-.7,1.5-1.3,3.1-5.1,4.3-11.1,3.6-17,0-.7-.2-1.5-.5-2.3Z"></path></g></svg>