<svg transform="scale(1)" id="_0974_Password" data-name=" 0974 Password" xmlns="http://www.w3.org/2000/svg" xmlns:xlink="http://www.w3.org/1999/xlink" version="1.1" viewBox="0 0 500 500" class="show_show__wrapper__graphic__5Waiy "><title>React</title><defs><style>
      .cls-1 {
        fill: #101720;
      }

      .cls-1, .cls-2, .cls-3, .cls-4, .cls-5, .cls-6, .cls-7, .cls-8 {
        stroke-width: 0px;
      }

      .cls-2 {
        fill: #008fb1;
      }

      .cls-9 {
        clip-path: url(#clippath);
      }

      .cls-3 {
        fill: none;
      }

      .cls-4 {
        fill: #ff9c0f;
      }

      .cls-5 {
        fill: #008eb1;
      }

      .cls-6 {
        fill: #ff7e6d;
      }

      .cls-10 {
        clip-path: url(#clippath-1);
      }

      .cls-11 {
        clip-path: url(#clippath-4);
      }

      .cls-12 {
        clip-path: url(#clippath-3);
      }

      .cls-13 {
        clip-path: url(#clippath-2);
      }

      .cls-14 {
        clip-path: url(#clippath-5);
      }

      .cls-7 {
        fill: #8fdce8;
      }

      .cls-8 {
        fill: #fffffe;
      }
    </style><clipPath id="clippath"><rect class="cls-3" x="162.1" y="162.7" width="41.4" height="32.7" rx="3.2" ry="3.2"></rect></clipPath><clipPath id="clippath-1"><path class="cls-3" d="M187.5,174.8c.3,1.8-.5,3.5-1.8,4.5v5.1c0,1.6-1.3,2.9-2.9,2.9s-2.9-1.3-2.9-2.9v-5.1c-1.1-.9-1.9-2.2-1.9-3.8,0-2.8,2.4-5,5.3-4.7,2.1.2,3.9,1.9,4.1,4Z"></path></clipPath><clipPath id="clippath-2"><path class="cls-3" d="M359.8,210.9l4.1,19.5h-21.6v-10.4h0c-3.7-.1-10-.8-13.4-4.3-5-5.2-3.6-17-3.6-17,0,0-4.6-.7-4.1-3.3.4-2.6,4.1-2.6,4.1-2.6,1-6.5,4.1-19.5,4.1-19.5l31.4,2.5s0,4.9-.1,11.2c0,2.6,4.2,5.2,4.1,8,0,2.7-4.4,5.5-4.5,7.9-.1,3.5-.2,6.4-.4,8.1h0Z"></path></clipPath><clipPath id="clippath-3"><path class="cls-3" d="M328.6,190.3s1.7-3,5.5-2.5c3.9.5,4.4,3.1,4.4,3.1,0,0-1.7,3.1-5.2,2.7s-4.7-3.3-4.7-3.3h0Z"></path></clipPath><clipPath id="clippath-4"><path class="cls-3" d="M237.5,260.1c-10.1-7.9-14.3-12.3-25.3-11.5-11,.8-21.9,3.3-22.9,6.3-.9,3,5.7,3.4,5.7,3.4,0,0-6.5,4-8.2,7.6-1.7,3.6,4.5,2.4,4.5,2.4,0,0-7.2,5.3-4.8,7.8,2.4,2.5,6.9-1.1,6.9-1.1,0,0-5.4,6-1.3,7.7s6.5,1.9,9.6,5.8c3.1,4,4.9,6.4,4.9,6.4l30.9-34.9h0Z"></path></clipPath><clipPath id="clippath-5"><rect class="cls-3" x="100" y="243.8" width="38.3" height="38.3"></rect></clipPath></defs><g id="monitor"><g id="monitor-2"><g id="monitor-3"><g><polygon class="cls-1" points="246.1 274.9 209.4 274.9 222 234.4 259.2 234.4 246.1 274.9"></polygon><path class="cls-1" d="M246,275.2h-36.6c0,0-.2,0-.2-.1s0-.2,0-.3l12.6-40.6c0-.1.2-.2.3-.2h37.2c0,0,.2,0,.2.1,0,0,0,.2,0,.3l-13.2,40.6c0,.1-.2.2-.3.2ZM209.8,274.6h36l13-40h-36.6l-12.4,40Z"></path></g><g><polygon class="cls-8" points="222 234.4 209.4 274.9 252.1 274.9 252.1 282.1 197.5 282.1 213 234.4 222 234.4"></polygon><path class="cls-1" d="M252.1,282.4h-54.6c0,0-.2,0-.2-.1,0,0,0-.2,0-.3l15.5-47.7c0-.1.2-.2.3-.2h9c0,0,.2,0,.2.1,0,0,0,.2,0,.3l-12.5,40.2h42.2c.2,0,.3.1.3.3v7.2c0,.2-.1.3-.3.3ZM197.9,281.8h53.8v-6.6h-42.4c0,0-.2,0-.2-.1s0-.2,0-.3l12.5-40.2h-8.4l-15.3,47.1Z"></path></g><g><rect class="cls-7" x="252.1" y="274.9" width="46.2" height="7.2"></rect><path class="cls-1" d="M298.3,282.4h-46.2c-.2,0-.3-.1-.3-.3v-7.2c0-.2.1-.3.3-.3h46.2c.2,0,.3.1.3.3v7.2c0,.2-.1.3-.3.3ZM252.4,281.8h45.6v-6.6h-45.6v6.6Z"></path></g><g id="laptop"><g><rect class="cls-8" x="122.1" y="88.9" width="232.6" height="159.4" rx="6.9" ry="6.9"></rect><path class="cls-1" d="M347.8,248.7h-218.8c-4,0-7.2-3.2-7.2-7.2V95.9c0-4,3.2-7.2,7.2-7.2h218.8c4,0,7.2,3.2,7.2,7.2v145.6c0,4-3.2,7.2-7.2,7.2ZM129,89.2c-3.7,0-6.6,3-6.6,6.6v145.6c0,3.7,3,6.6,6.6,6.6h218.8c3.7,0,6.6-3,6.6-6.6V95.9c0-3.7-3-6.6-6.6-6.6h-218.8Z"></path></g><g><rect class="cls-5" x="128.5" y="94.7" width="219.8" height="148"></rect><path class="cls-1" d="M348.3,242.9h-219.8c-.2,0-.3-.1-.3-.3V94.7c0-.2.1-.3.3-.3h219.8c.2,0,.3.1.3.3v148c0,.2-.1.3-.3.3ZM128.8,242.3h219.2V95h-219.2v147.4Z"></path></g></g></g><g><rect class="cls-8" x="138.3" y="103.6" width="200.1" height="129.9"></rect><path class="cls-1" d="M338.4,233.8h-200.1c-.2,0-.3-.1-.3-.3V103.6c0-.2.1-.3.3-.3h200.1c.2,0,.3.1.3.3v129.9c0,.2-.1.3-.3.3ZM138.6,233.2h199.5V103.9h-199.5v129.3Z"></path></g></g><g><rect class="cls-7" x="237.5" y="158.8" width="80.2" height="17.4"></rect><path class="cls-1" d="M317.7,176.5h-80.2c-.2,0-.3-.1-.3-.3v-17.4c0-.2.1-.3.3-.3h80.2c.2,0,.3.1.3.3v17.4c0,.2-.1.3-.3.3ZM237.8,175.9h79.6v-16.8h-79.6v16.8Z"></path></g><g><rect class="cls-8" x="237.5" y="136.2" width="80.2" height="17.4"></rect><path class="cls-1" d="M317.7,153.9h-80.2c-.2,0-.3-.1-.3-.3v-17.4c0-.2.1-.3.3-.3h80.2c.2,0,.3.1.3.3v17.4c0,.2-.1.3-.3.3ZM237.8,153.3h79.6v-16.8h-79.6v16.8Z"></path></g><g><rect class="cls-4" x="237.5" y="195.3" width="80.2" height="17.4" rx="8.7" ry="8.7"></rect><path class="cls-1" d="M309,213.1h-62.8c-5,0-9-4-9-9s4-9,9-9h62.8c5,0,9,4,9,9s-4,9-9,9ZM246.2,195.6c-4.6,0-8.4,3.8-8.4,8.4s3.8,8.4,8.4,8.4h62.8c4.6,0,8.4-3.8,8.4-8.4s-3.8-8.4-8.4-8.4h-62.8Z"></path></g><path class="cls-1" d="M251,166.6c-.2-.5-.5-.7-1-.5-.2,0-.4.1-.6.3-.2.1-.4.3-.6.4-.2.2-.5.3-.8.5-.2.1-.5.2-.8.4,0-.3,0-.6,0-.9,0-.3.1-.6.2-.9s.2-.5.2-.7c0-.2.1-.4.1-.6,0-.3,0-.5-.2-.6-.1-.1-.3-.2-.6-.2-.5,0-.8.3-.8.8s0,.4.1.6c0,.2.1.4.2.7s.2.5.2.9c0,.3,0,.6.1.9-.3-.1-.6-.2-.8-.4-.3-.2-.5-.3-.8-.5-.2-.2-.4-.3-.6-.4-.2-.1-.4-.2-.6-.3-.2,0-.5,0-.6,0-.2,0-.3.2-.4.5-.2.5,0,.8.5,1,.2,0,.4,0,.6,0h.8c.3,0,.6,0,.9,0,.3,0,.6,0,.9.2-.2.3-.4.5-.6.7-.2.2-.5.4-.7.6-.2.2-.4.3-.6.4-.2.1-.3.3-.4.4-.1.2-.2.4-.2.6s.2.4.4.5c.4.3.8.2,1.1-.2.1-.1.2-.3.3-.5,0-.2.1-.4.2-.7s.2-.5.3-.8c.1-.2.3-.5.4-.8.2.3.3.5.4.8.1.3.2.6.3.8s.2.5.2.7c0,.2.2.4.3.5.2.2.3.3.5.4s.4,0,.6-.2c.4-.3.5-.7.2-1.1-.1-.2-.3-.3-.4-.4s-.4-.3-.6-.4c-.2-.2-.5-.3-.7-.6-.2-.2-.4-.4-.6-.6.3,0,.6-.1.9-.2.3,0,.6,0,.9,0s.5,0,.8,0,.4,0,.6,0c.2,0,.4-.2.5-.4s0-.4,0-.6h0Z"></path><path class="cls-1" d="M262.8,166.6c-.2-.5-.5-.7-1-.5-.2,0-.4.1-.5.3-.2.1-.4.3-.6.4-.2.2-.5.3-.8.5-.2.1-.5.2-.8.4,0-.3,0-.6,0-.9,0-.3.1-.6.2-.9s.2-.5.2-.7c0-.2.1-.4.1-.6,0-.3,0-.5-.2-.6-.1-.1-.3-.2-.6-.2-.5,0-.8.3-.8.8s0,.4.1.6c0,.2.1.4.2.7s.2.5.2.9c0,.3,0,.6.1.9-.3-.1-.6-.2-.8-.4-.3-.2-.5-.3-.8-.5-.2-.2-.4-.3-.6-.4-.2-.1-.4-.2-.5-.3-.2,0-.5,0-.6,0-.2,0-.3.2-.4.5-.2.5,0,.8.5,1,.2,0,.4,0,.6,0h.8c.3,0,.6,0,.9,0,.3,0,.6,0,.9.2-.2.3-.4.5-.6.7-.2.2-.5.4-.7.6-.2.2-.4.3-.6.4-.2.1-.3.3-.4.4-.1.2-.2.4-.2.6s.2.4.4.5c.4.3.8.2,1.1-.2.1-.1.2-.3.3-.5,0-.2.1-.4.2-.7s.2-.5.3-.8c.1-.2.3-.5.4-.8.2.3.3.5.4.8.1.3.2.6.3.8s.2.5.2.7c0,.2.2.4.3.5.2.2.3.3.5.4s.4,0,.6-.2c.4-.3.5-.7.2-1.1-.1-.2-.3-.3-.4-.4s-.4-.3-.6-.4c-.2-.2-.5-.3-.7-.6-.2-.2-.4-.4-.6-.6.3,0,.6-.1.9-.2.3,0,.6,0,.9,0s.5,0,.8,0,.4,0,.6,0c.2,0,.4-.2.5-.4s0-.4,0-.6h0Z"></path><path class="cls-1" d="M274.6,166.6c-.2-.5-.5-.7-1-.5-.2,0-.4.1-.5.3-.2.1-.4.3-.6.4-.2.2-.5.3-.8.5-.2.1-.5.2-.8.4,0-.3,0-.6,0-.9,0-.3.1-.6.2-.9s.2-.5.2-.7c0-.2.1-.4.1-.6,0-.3,0-.5-.2-.6-.1-.1-.3-.2-.6-.2-.5,0-.8.3-.8.8s0,.4.1.6c0,.2.1.4.2.7s.2.5.2.9c0,.3,0,.6.1.9-.3-.1-.6-.2-.8-.4-.3-.2-.5-.3-.8-.5-.2-.2-.4-.3-.6-.4-.2-.1-.4-.2-.5-.3-.2,0-.5,0-.6,0-.2,0-.3.2-.4.5-.2.5,0,.8.5,1,.2,0,.4,0,.6,0h.8c.3,0,.6,0,.9,0,.3,0,.6,0,.9.2-.2.3-.4.5-.6.7-.2.2-.5.4-.7.6-.2.2-.4.3-.6.4-.2.1-.3.3-.4.4-.1.2-.2.4-.2.6s.2.4.4.5c.4.3.8.2,1.1-.2.1-.1.2-.3.3-.5,0-.2.1-.4.2-.7s.2-.5.3-.8c.1-.2.3-.5.4-.8.2.3.3.5.4.8.1.3.2.6.3.8s.2.5.2.7c0,.2.2.4.3.5.2.2.3.3.5.4s.4,0,.6-.2c.4-.3.5-.7.2-1.1-.1-.2-.3-.3-.4-.4s-.4-.3-.6-.4c-.2-.2-.5-.3-.7-.6-.2-.2-.4-.4-.6-.6.3,0,.6-.1.9-.2.3,0,.6,0,.9,0s.5,0,.8,0,.4,0,.6,0c.2,0,.4-.2.5-.4s0-.4,0-.6h0Z"></path><path class="cls-1" d="M286.4,166.6c-.2-.5-.5-.7-1-.5-.2,0-.4.1-.5.3-.2.1-.4.3-.6.4-.2.2-.5.3-.8.5-.2.1-.5.2-.8.4,0-.3,0-.6,0-.9,0-.3.1-.6.2-.9s.2-.5.2-.7c0-.2.1-.4.1-.6,0-.3,0-.5-.2-.6-.1-.1-.3-.2-.6-.2-.5,0-.8.3-.8.8s0,.4.1.6c0,.2.1.4.2.7s.2.5.2.9c0,.3,0,.6.1.9-.3-.1-.6-.2-.8-.4-.3-.2-.5-.3-.8-.5-.2-.2-.4-.3-.6-.4-.2-.1-.4-.2-.5-.3-.2,0-.5,0-.6,0-.2,0-.3.2-.4.5-.2.5,0,.8.5,1,.2,0,.4,0,.6,0h.8c.3,0,.6,0,.9,0,.3,0,.6,0,.9.2-.2.3-.4.5-.6.7-.2.2-.5.4-.7.6-.2.2-.4.3-.6.4-.2.1-.3.3-.4.4-.1.2-.2.4-.2.6s.2.4.4.5c.4.3.8.2,1.1-.2.1-.1.2-.3.3-.5,0-.2.1-.4.2-.7s.2-.5.3-.8c.1-.2.3-.5.4-.8.2.3.3.5.4.8.1.3.2.6.3.8s.2.5.2.7c0,.2.2.4.3.5.2.2.3.3.5.4s.4,0,.6-.2c.4-.3.5-.7.2-1.1-.1-.2-.3-.3-.4-.4s-.4-.3-.6-.4c-.2-.2-.5-.3-.7-.6-.2-.2-.4-.4-.6-.6.3,0,.6-.1.9-.2.3,0,.6,0,.9,0s.5,0,.8,0,.4,0,.6,0c.2,0,.4-.2.5-.4s0-.4,0-.6h0Z"></path><path class="cls-1" d="M298.2,166.6c-.2-.5-.5-.7-1-.5-.2,0-.4.1-.5.3-.2.1-.4.3-.6.4-.2.2-.5.3-.8.5-.2.1-.5.2-.8.4,0-.3,0-.6,0-.9,0-.3.1-.6.2-.9s.2-.5.2-.7c0-.2.1-.4.1-.6,0-.3,0-.5-.2-.6-.1-.1-.3-.2-.6-.2-.5,0-.8.3-.8.8s0,.4.1.6c0,.2.1.4.2.7s.2.5.2.9c0,.3,0,.6.1.9-.3-.1-.6-.2-.8-.4-.3-.2-.5-.3-.8-.5-.2-.2-.4-.3-.6-.4-.2-.1-.4-.2-.5-.3-.2,0-.5,0-.6,0-.2,0-.3.2-.4.5-.2.5,0,.8.5,1,.2,0,.4,0,.6,0h.8c.3,0,.6,0,.9,0,.3,0,.6,0,.9.2-.2.3-.4.5-.6.7-.2.2-.5.4-.7.6-.2.2-.4.3-.6.4-.2.1-.3.3-.4.4-.1.2-.2.4-.2.6s.2.4.4.5c.4.3.8.2,1.1-.2.1-.1.2-.3.3-.5,0-.2.1-.4.2-.7s.2-.5.3-.8c.1-.2.3-.5.4-.8.2.3.3.5.4.8.1.3.2.6.3.8s.2.5.2.7c0,.2.2.4.3.5.2.2.3.3.5.4s.4,0,.6-.2c.4-.3.5-.7.2-1.1-.1-.2-.3-.3-.4-.4s-.4-.3-.6-.4c-.2-.2-.5-.3-.7-.6-.2-.2-.4-.4-.6-.6.3,0,.6-.1.9-.2.3,0,.6,0,.9,0s.5,0,.8,0,.4,0,.6,0c.2,0,.4-.2.5-.4s0-.4,0-.6h0Z"></path><path class="cls-1" d="M310.1,166.6c-.2-.5-.5-.7-1-.5-.2,0-.4.1-.5.3-.2.1-.4.3-.6.4-.2.2-.5.3-.8.5-.2.1-.5.2-.8.4,0-.3,0-.6,0-.9,0-.3.1-.6.2-.9s.2-.5.2-.7c0-.2.1-.4.1-.6,0-.3,0-.5-.2-.6-.1-.1-.3-.2-.6-.2-.5,0-.8.3-.8.8s0,.4.1.6c0,.2.1.4.2.7s.2.5.2.9c0,.3,0,.6.1.9-.3-.1-.6-.2-.8-.4-.3-.2-.5-.3-.8-.5-.2-.2-.4-.3-.6-.4-.2-.1-.4-.2-.5-.3-.2,0-.5,0-.6,0-.2,0-.3.2-.4.5-.2.5,0,.8.5,1,.2,0,.4,0,.6,0h.8c.3,0,.6,0,.9,0,.3,0,.6,0,.9.2-.2.3-.4.5-.6.7-.2.2-.5.4-.7.6-.2.2-.4.3-.6.4-.2.1-.3.3-.4.4-.1.2-.2.4-.2.6s.2.4.4.5c.4.3.8.2,1.1-.2.1-.1.2-.3.3-.5,0-.2.1-.4.2-.7s.2-.5.3-.8c.1-.2.3-.5.4-.8.2.3.3.5.4.8.1.3.2.6.3.8s.2.5.2.7c0,.2.2.4.3.5.2.2.3.3.5.4s.4,0,.6-.2c.4-.3.5-.7.2-1.1-.1-.2-.3-.3-.4-.4s-.4-.3-.6-.4c-.2-.2-.5-.3-.7-.6-.2-.2-.4-.4-.6-.6.3,0,.6-.1.9-.2.3,0,.6,0,.9,0s.5,0,.8,0,.4,0,.6,0c.2,0,.4-.2.5-.4s0-.4,0-.6h0Z"></path><path class="cls-1" d="M312,145.2h-68.9c-.2,0-.3-.1-.3-.3s.1-.3.3-.3h68.9c.2,0,.3.1.3.3s-.1.3-.3.3Z"></path><rect class="cls-1" x="138.3" y="103.6" width="84.6" height="129.9"></rect><g id="lock"><rect class="cls-4" x="162.1" y="162.7" width="41.4" height="32.6" rx="3.2" ry="3.2"></rect><g class="cls-9"><g><path class="cls-2" d="M188.8,160.8c11,5.8,10.4,10.5,10.4,20.2v.7c0,2.6-2.1,4.7-4.7,4.7h-23.2c-4.1,0-7.9-2-10.1-5.4l-2.9-4.3-1.3,25.3h49.6c0,.1,6.4-1.2,6.4-1.2l-3-39.8h-21.1q0-.1,0-.1Z"></path><path class="cls-7" d="M185.7,161.6c-.2,0-.4,0-.5.3-1.2,2.8-3.6,4.8-6.2,6.4-2.8,1.8-5.7,3.2-8.4,5.1-3,2.1-5.8,4.6-8.3,7.2-2.6,2.7-5,5.5-6.3,9-1.4,3.9-1.6,8.1-1.8,12.1,0,.6.9.6.9,0,.1-3.6.3-7.3,1.4-10.8.5-1.8,1.3-3.4,2.4-4.9,1.1-1.5,2.3-2.9,3.6-4.3,2.5-2.7,5.3-5.1,8.2-7.3,2.7-1.9,5.6-3.4,8.4-5.2,2.9-1.8,5.6-4,6.9-7.1,0-.2-.1-.5-.3-.5h0Z"></path><path class="cls-7" d="M196.1,157.7c-.2-.4-.4-.9-.7-1.3-.3-.5-1,0-.8.4,2,3.4,2.3,7.7,1.1,11.5-1.2,3.6-3.7,6.7-6.8,8.9-3.2,2.3-7,3.4-10.4,5.2-1.7.9-3.4,1.9-4.8,3.2-1.3,1.3-2.4,2.8-3.2,4.4-1.9,3.8-2.6,7.9-3.3,12.1,0,.6.8.8.8.2.6-3.7,1.2-7.5,2.8-11,.7-1.7,1.7-3.3,2.9-4.6,1.3-1.4,2.9-2.5,4.7-3.4,3.5-1.8,7.3-2.9,10.6-5.2,3.1-2.2,5.7-5.2,7.1-8.7,1.5-3.7,1.5-8-.2-11.7h0Z"></path><path class="cls-7" d="M206.8,167.3c-4.4,1.8-7.8,5.4-9.7,9.8-2.1,4.8-2.1,10.1-.6,15,.9,2.9,2.3,5.7,4.1,8.2.3.4,1.1,0,.8-.4-3.1-4.2-5-9.2-5-14.4,0-4.7,1.6-9.3,4.7-12.8,1.7-1.9,3.7-3.4,6.1-4.4.5-.2.3-1.1-.2-.8h0Z"></path><path class="cls-7" d="M193.3,192.3c-.1-1.2-.3-2.4-.6-3.6-.2-1-.6-2-1.1-2.9-.5-.8-1.2-1.5-2.1-1.8-1-.4-2.1,0-3,.5-1.8,1.1-3,3-3.8,4.9-.9,2.2-1.4,4.6-1.7,7,0,.2,0,.5.3.5.2,0,.5,0,.5-.3.5-3.8,1.4-7.9,4.3-10.6.7-.7,1.6-1.2,2.7-1.2.9,0,1.6.6,2,1.3.5.8.8,1.6,1,2.5.3,1.1.5,2.3.6,3.5.1,1.5.2,3,.2,4.4,0-.2-.1-.5-.2-.8-.1-.5-1-.3-.8.2.3,1.4.6,2.7,1,4.1.1.5.8.4.9-.1,0-2.5.1-5.1,0-7.6h0Z"></path><path class="cls-7" d="M172.7,161.4c-2.3,4-6.8,6.2-11.4,5.7-1-.1-1.9-.4-2.9-.7.4-.2.1-.9-.4-.8-.3,0-.7.2-1,.3-.4,0-.4.6-.1.8,2.3,1.2,4.9,1.6,7.5,1.3,2.4-.3,4.6-1.4,6.4-3,1-.9,1.9-1.9,2.5-3.1.3-.5-.5-.9-.8-.4h0Z"></path></g></g><path class="cls-1" d="M200.3,195.7h-34.9c-1.9,0-3.5-1.6-3.5-3.5v-26.2c0-1.9,1.6-3.5,3.5-3.5h34.9c1.9,0,3.5,1.6,3.5,3.5v26.2c0,1.9-1.6,3.5-3.5,3.5ZM165.3,163c-1.6,0-2.9,1.3-2.9,2.9v26.2c0,1.6,1.3,2.9,2.9,2.9h34.9c1.6,0,2.9-1.3,2.9-2.9v-26.2c0-1.6-1.3-2.9-2.9-2.9h-34.9Z"></path><g><path class="cls-8" d="M173.9,143.5c-3.4,2-5.9,5.3-6.7,9.3,0-.1,0-.2,0-.3.9-3.8,3.3-7.1,6.7-9h0Z"></path><path class="cls-1" d="M167.2,153.1s0,0,0,0c-.2,0-.3-.1-.3-.3s0-.2,0-.3c0,0,0,0,0,0,.9-3.9,3.4-7.2,6.8-9.2,0,0,0,0,0,0,0,0,0,0,0,0,.1,0,.3,0,.4.1s0,.3-.1.4c-3.4,2-5.8,5.3-6.6,9.1,0,.1-.2.2-.3.2Z"></path></g><g><path class="cls-8" d="M177.1,142.2c-.2,0-.4.1-.7.2.2,0,.4-.1.7-.2Z"></path><path class="cls-1" d="M176.4,142.7c-.1,0-.2,0-.3-.2,0-.2,0-.3.2-.4.2,0,.4-.1.7-.2.2,0,.3,0,.4.2,0,.2,0,.3-.2.4-.2,0-.4.1-.6.2,0,0,0,0,0,0Z"></path></g><g><path class="cls-8" d="M179.5,141.7c-.4,0-.7,0-1.1.1.3,0,.7-.1,1.1-.1Z"></path><path class="cls-1" d="M178.4,142.2c-.1,0-.3-.1-.3-.2,0-.2,0-.3.2-.3.4,0,.7-.1,1.1-.1.2,0,.3.1.3.3,0,.2-.1.3-.3.3-.3,0-.7,0-1,.1,0,0,0,0,0,0Z"></path></g><g><path class="cls-8" d="M189.2,147.8c-.5-.3-1-.5-1.6-.7.6.2,1.1.4,1.6.7Z"></path><path class="cls-1" d="M189.2,148.1s0,0-.1,0c-.5-.3-1-.5-1.5-.6-.1,0-.2-.2-.2-.3,0,0,0,0,0,0,0-.2.2-.2.4-.2.6.2,1.1.4,1.6.7.1,0,.2.2.2.3,0,0,0,0,0,.1,0,.1-.2.2-.3.2Z"></path></g><g><path class="cls-8" d="M199,155.6v7.1h-5.1v-7.1c0-3.1-1.6-5.9-4.1-7.5,0,0,0,0,0,0-.2-.1-.3-.2-.5-.3-.5-.3-1-.5-1.6-.7,0,0-.2,0-.2,0,0,0-.1,0-.2,0s-.1,0-.2,0c0,0-.1,0-.2,0-.1,0-.3,0-.4,0-.1,0-.3,0-.4,0,0,0-.1,0-.2,0-.1,0-.2,0-.4,0h-4.8c-.1,0-.2,0-.4,0,0,0-.1,0-.2,0-.1,0-.3,0-.4,0-.1,0-.3,0-.4,0,0,0-.1,0-.2,0s-.1,0-.2,0c0,0-.1,0-.2,0-.1,0-.2,0-.3.1h0c-.3.1-.6.2-1,.4-1.7.8-3.1,2.1-4,3.7.4-.7.8-1.3,1.4-1.8-1.5,1.6-2.5,3.8-2.5,6.1v7.1h-5.1v-7.1c0-1,.1-1.9.3-2.8h0c.8-4,3.3-7.3,6.7-9.3.1,0,.3-.1.4-.2.1,0,.2-.1.4-.2.6-.3,1.1-.5,1.7-.7.2,0,.4-.1.7-.2h.3c.2-.1.4-.2.7-.2.1,0,.2,0,.3,0,.3,0,.7-.1,1.1-.1.1,0,.2,0,.4,0,.1,0,.2,0,.3,0h.1c.2,0,.4,0,.6,0h4.1c.2,0,.4,0,.6,0h.1c.1,0,.2,0,.3,0,.1,0,.2,0,.4,0,.2,0,.3,0,.5,0s.3,0,.5,0h0c.1,0,.2,0,.3,0,.2,0,.4.1.7.2h.3c.2.1.4.2.6.3h0c.1,0,.3.1.4.1.1,0,.3.1.4.2,0,0,.1,0,.2.1,0,0,.1,0,.2,0,.1,0,.3.1.4.2.1,0,.3.1.4.2.1,0,.3.1.4.2,3.4,2,5.9,5.3,6.7,9.3h0c.2.9.3,1.8.3,2.8h0Z"></path><path class="cls-1" d="M199,163h-5.1c-.2,0-.3-.1-.3-.3v-7.1c0-2.9-1.5-5.6-4-7.2h0s0,0,0,0c-.2,0-.3-.2-.5-.3-.5-.3-1-.5-1.5-.6,0,0,0,0-.1,0h-.3c0-.1-.1-.1-.2-.1h-.1s0,0-.1,0c-.1,0-.3,0-.4,0h-.4c0,0,0,0,0,0,0,0-.1,0-.2,0-.1,0-.2,0-.4,0h-4.8c-.1,0-.2,0-.3,0,0,0-.1,0-.1,0,0,0,0,0,0,0-.1,0-.3,0-.4,0-.1,0-.3,0-.4,0-.1,0-.2,0-.2,0,0,0,0,0-.1,0h0c0,0-.1,0-.2,0-.2,0-.2,0-.3.1,0,0,0,0,0,0-.4.1-.6.2-.9.4-1,.4-1.8,1-2.5,1.8,0,0,0,0,0,0h0s0,0,0,0c-1.5,1.6-2.4,3.7-2.4,5.9v7.1c0,.2-.1.3-.3.3h-5.1c-.2,0-.3-.1-.3-.3v-7.1c0-.9,0-1.9.3-2.9.8-4,3.3-7.5,6.9-9.5l.8-.4c.6-.3,1.2-.5,1.8-.7h.1c.2,0,.4-.2.6-.2h.3c.2-.1.4-.2.7-.2h.4c.4-.1.7-.2,1.1-.2h.4c.1,0,.2,0,.3,0h.1c.1,0,.2,0,.3,0,.1,0,.2,0,.3,0h4.1c.2,0,.4,0,.6,0h.1c.1,0,.2,0,.3,0,0,0,.2,0,.2,0h.6c.2,0,.4.1.5.2.2,0,.3,0,.4,0,.2,0,.4,0,.7.2h.3c.2.1.4.2.6.3,0,0,0,0,0,0h.4c0,.2.2.2.3.3h.1c0,0,.2.1.3.2h.2c0,.1.2.2.3.2l.7.3c.1,0,.2.1.3.2,3.5,2,6,5.5,6.9,9.5.2.9.3,1.9.3,2.9s0,0,0,0v7c0,.2-.1.3-.3.3ZM194.1,162.4h4.5v-6.8s0,0,0,0c0-.9,0-1.8-.3-2.7-.8-3.8-3.2-7.1-6.6-9.1-.1,0-.2-.1-.3-.2l-.6-.3c0,0-.2,0-.3-.1h-.2c0-.1-.1-.2-.2-.2h-.2c0,0-.2-.1-.3-.2h-.4c0-.1,0-.1,0-.1-.2,0-.4-.1-.6-.2h-.3c-.2-.1-.4-.2-.7-.2-.1,0-.2,0-.3,0-.2,0-.4,0-.5,0h-.6c0,0-.1,0-.2,0-.1,0-.2,0-.3,0h-.1c-.2,0-.4,0-.6,0h-4.1c-.1,0-.2,0-.3,0-.1,0-.2,0-.3,0h-.1c0,0-.2,0-.3,0h-.3c-.4,0-.7.1-1,.2h-.3c-.2.1-.4.2-.7.2h-.3c-.2.1-.4.2-.6.3h0c-.6.2-1.1.4-1.7.7l-.8.4c-3.4,2-5.8,5.3-6.6,9.1-.2.9-.3,1.9-.3,2.8v6.8h4.5v-6.8c0-1.6.4-3.1,1.1-4.4,0,0,0,0,0,0,0,0,0,0,0-.1,1-1.6,2.4-2.9,4.1-3.7.3-.1.6-.3,1-.4,0,0,0,0,0,0,0,0,.2,0,.3,0,0,0,.2,0,.3,0,0,0,0,0,0,0h0c0,0,.2,0,.3,0,.2,0,.3,0,.4,0,.1,0,.3,0,.4,0,0,0,.2,0,.2,0,.1,0,.2,0,.4,0h4.8c.1,0,.3,0,.4,0,0,0,.1,0,.2,0h.5c.2,0,.3.1.5.1h.1s0,0,.1,0c0,0,.1,0,.2,0h.3c0,.1,0,.1.1.1.6.2,1.1.4,1.6.7.2,0,.3.2.5.3,0,0,0,0,0,0h0c2.7,1.7,4.2,4.6,4.2,7.7v6.8Z"></path></g><g><path class="cls-8" d="M174.9,149.1c-.1.1-.2.2-.4.4.1-.1.2-.2.4-.4Z"></path><path class="cls-1" d="M174.5,149.8c0,0-.2,0-.2,0s0-.1,0-.2c0,0,0-.2,0-.2.1-.1.2-.2.4-.4.1-.1.3-.1.4,0,0,0,0,.1,0,.2s0,.2,0,.2c-.1.1-.2.2-.4.4,0,0-.1,0-.2,0Z"></path></g><g><path class="cls-8" d="M177.1,147.6s0,0,0,0c0,0,0,0,0,0Z"></path><path class="cls-1" d="M177.1,147.9c-.1,0-.2,0-.3-.2,0,0,0,0,0,0,0-.1,0-.2.2-.3,0,0,0,0,0,0,.1,0,.3,0,.4.2s0,.3-.1.4c0,0,0,0-.1,0,0,0,0,0,0,0Z"></path></g><g><path class="cls-8" d="M177.7,147.4c-.2,0-.4.1-.6.2.2,0,.4-.2.6-.2Z"></path><path class="cls-1" d="M177.1,147.9c-.1,0-.2,0-.3-.2,0,0,0,0,0-.1,0-.1,0-.2.2-.3.2,0,.4-.2.6-.2.2,0,.3,0,.4.2,0,0,0,0,0,.1,0,.1,0,.2-.2.3-.2,0-.4.1-.5.2,0,0,0,0-.1,0Z"></path></g><g><path class="cls-8" d="M177.1,147.6c-.2,0-.4.2-.6.3.2-.1.4-.2.6-.3Z"></path><path class="cls-1" d="M176.5,148.2c-.1,0-.2,0-.3-.1,0,0,0,0,0-.2,0-.1,0-.2.1-.3.2-.1.4-.2.6-.3.1,0,.3,0,.4.1,0,.1,0,.3-.1.4h-.2c-.1.2-.2.2-.4.3,0,0,0,0-.2,0Z"></path></g><g><path class="cls-8" d="M176.5,147.9s0,0,0,0c0,0,0,0,0,0Z"></path><path class="cls-1" d="M176.5,148.2c-.2,0-.3-.1-.3-.3s.2-.3.3-.3.3.1.3.3-.2.3-.3.3Z"></path></g><g><path class="cls-8" d="M177.8,147.3s0,0-.1,0c0,0,0,0,.1,0Z"></path><path class="cls-1" d="M177.7,147.7c-.1,0-.2,0-.3-.2,0,0,0,0,0,0,0-.1,0-.2.2-.3h0s0,0,0,0c.1,0,.3,0,.3.2,0,.2,0,.3-.1.4,0,0,0,0-.1,0,0,0,0,0,0,0ZM177.9,147.6h0,0Z"></path></g><g><path class="cls-8" d="M198.7,152.8c-.8-4-3.3-7.3-6.7-9.3,3.3,1.9,5.8,5.2,6.7,9,0,.1,0,.2,0,.3Z"></path><path class="cls-1" d="M198.7,153.1c-.1,0-.3,0-.3-.2-.8-3.8-3.2-7.1-6.6-9.1,0,0,0,0,0,0h0c-.1,0-.2-.3-.1-.4,0-.1.3-.2.4-.1h0s0,0,0,0c3.4,2,5.9,5.3,6.8,9.2,0,.1,0,.2,0,.3,0,.2,0,.3-.3.3,0,0,0,0,0,0Z"></path></g><path class="cls-1" d="M182.8,189.5h0c-2.8,0-5.1-2.3-5.1-5.1v-4.2c-1.2-1.3-1.9-3-1.9-4.7,0-3.8,3.1-7,7-7s.5,0,.8,0c3.1.3,5.7,2.8,6.1,5.9.3,2.1-.4,4.2-1.8,5.8v4.2c0,2.8-2.3,5.1-5.1,5.1ZM182.8,169.2c-3.5,0-6.4,2.9-6.4,6.4s.6,3.2,1.8,4.4c0,0,0,.1,0,.2v4.3c0,2.5,2,4.5,4.5,4.5h0c2.5,0,4.5-2,4.5-4.5v-4.3c0,0,0-.2,0-.2,1.4-1.4,2-3.4,1.7-5.3-.4-2.9-2.7-5.1-5.6-5.4-.2,0-.5,0-.7,0Z"></path><path class="cls-2" d="M187.5,174.8c.3,1.8-.5,3.5-1.8,4.5v5.1c0,1.6-1.3,2.9-2.9,2.9h0c-1.6,0-2.9-1.3-2.9-2.9v-5.1c-1.1-.9-1.9-2.2-1.9-3.8,0-2.8,2.4-5,5.3-4.7,2.1.2,3.9,1.9,4.1,4Z"></path><g class="cls-10"><path class="cls-1" d="M184,170.8c-2.3.3-3.1,3.6-2.7,5.6s1.9,2.7,1.9,2.7c0,0-1,.5-1,3.1s.2,4.8,1.3,5.3-3.1.6-3.1.6c0,0-.6,3.1-2.4-5.6l-1.8-8.7,5.5-4.3,2.4,1.4h0Z"></path></g><path class="cls-1" d="M182.8,187.6c-1.8,0-3.2-1.4-3.2-3.2v-5c-1.2-1-1.9-2.4-1.9-3.9s.6-2.8,1.7-3.8c1.1-1,2.5-1.4,3.9-1.3,2.2.3,4.1,2.1,4.4,4.3.3,1.8-.4,3.5-1.8,4.7v5c0,1.8-1.4,3.2-3.2,3.2ZM182.8,171.1c-1.1,0-2.1.4-3,1.1-.9.8-1.5,2.1-1.5,3.3s.6,2.7,1.7,3.5c0,0,.1.1.1.2v5.1c0,1.4,1.2,2.6,2.6,2.6s2.6-1.2,2.6-2.6v-5.1c0,0,0-.2.1-.2,1.3-1,1.9-2.6,1.7-4.2h0c-.3-2-1.9-3.5-3.9-3.8-.2,0-.3,0-.5,0Z"></path><g><polygon class="cls-1" points="193.9 161.7 199 162.1 199 162.7 193.9 162.7 193.9 161.7"></polygon><path class="cls-1" d="M199,163h-5.1c-.2,0-.3-.1-.3-.3v-1c0,0,0-.2,0-.2s.2,0,.2,0l5.1.4c.2,0,.3.1.3.3v.6c0,.2-.1.3-.3.3ZM194.1,162.4h4.5s-4.5-.4-4.5-.4v.4Z"></path></g><g><polygon class="cls-1" points="166.9 161.7 172 162.1 172 162.7 166.9 162.7 166.9 161.7"></polygon><path class="cls-1" d="M172,163h-5.1c-.2,0-.3-.1-.3-.3v-1c0,0,0-.2,0-.2,0,0,.1,0,.2,0l5.1.4c.2,0,.3.1.3.3v.6c0,.2-.1.3-.3.3ZM167.2,162.4h4.5s-4.5-.4-4.5-.4v.4Z"></path></g></g></g><g id="table"><rect class="cls-1" x="40.8" y="290.5" width="264.2" height="64.1"></rect><g><rect class="cls-5" x="166.1" y="282.1" width="121.9" height="15"></rect><path class="cls-1" d="M288,297.4h-121.9c-.2,0-.3-.1-.3-.3v-15c0-.2.1-.3.3-.3h121.9c.2,0,.3.1.3.3v15c0,.2-.1.3-.3.3ZM166.4,296.8h121.3v-14.4h-121.3v14.4Z"></path></g><g><rect class="cls-7" x="40.8" y="282.1" width="125.3" height="15"></rect><path class="cls-1" d="M166.1,297.4H40.8c-.2,0-.3-.1-.3-.3v-15c0-.2.1-.3.3-.3h125.3c.2,0,.3.1.3.3v15c0,.2-.1.3-.3.3ZM41.1,296.8h124.7v-14.4H41.1v14.4Z"></path></g><g><path class="cls-7" d="M166.1,297.1v147.1h-24.1v-101.8c0-11-4.5-21.6-12.7-28.9-5.9-5.2-14.2-9.3-25.8-9.3s-20,4.1-25.8,9.3c-8.2,7.3-12.7,17.9-12.7,28.9v101.8h-24.1v-147.1h125.3Z"></path><path class="cls-1" d="M166.1,444.5h-24.1c-.2,0-.3-.1-.3-.3v-101.8c0-11.2-4.6-21.6-12.6-28.7-6.9-6.1-15.6-9.2-25.6-9.2s-18.7,3.1-25.6,9.2c-8,7.1-12.6,17.5-12.6,28.7v101.8c0,.2-.1.3-.3.3h-24.1c-.2,0-.3-.1-.3-.3v-147.1c0-.2.1-.3.3-.3h125.3c.2,0,.3.1.3.3v147.1c0,.2-.1.3-.3.3ZM142.3,443.9h23.5v-146.5H41.1v146.5h23.5v-101.5c0-11.3,4.7-22,12.8-29.1,7.1-6.2,15.8-9.4,26-9.4s19,3.2,26,9.4c8.1,7.2,12.8,17.8,12.8,29.1v101.5Z"></path></g><g><polygon class="cls-1" points="40.8 302.1 166.1 298.8 166.1 297.1 40.8 297.1 40.8 302.1"></polygon><path class="cls-1" d="M40.8,302.4c0,0-.2,0-.2,0,0,0,0-.1,0-.2v-5c0-.2.1-.3.3-.3h125.3c.2,0,.3.1.3.3v1.6c0,.2-.1.3-.3.3l-125.3,3.3h0ZM41.1,297.4v4.4l124.7-3.3v-1.1H41.1Z"></path></g></g><g id="character"><path class="cls-6" d="M359.8,210.9l4.1,19.5h-21.6v-10.4h0c-3.7-.1-10-.8-13.4-4.3-5-5.2-3.6-17-3.6-17,0,0-4.6-.7-4.1-3.3.4-2.6,4.1-2.6,4.1-2.6,1-6.5,4.1-19.5,4.1-19.5l31.4,2.5s0,4.9-.1,11.2c0,2.6,4.2,5.2,4.1,8,0,2.7-4.4,5.5-4.5,7.9-.1,3.5-.2,6.4-.4,8.1h0Z"></path><g class="cls-13"><path class="cls-2" d="M328.9,215.7c4.8,2.9,17.4-1.1,20.9-6.6,3.5-5.5-2.6-9.8-2.2-15.5s1.9-13.4,1.9-13.4l16.2,12.6-4.8,23.8s-10.3,4.1-12.5,8.4c-2.2,4.3,1.7,9.8,1.7,9.8l-17.8-4.2-3.4-14.7"></path></g><path class="cls-1" d="M363.9,230.7h-21.6c-.2,0-.3-.1-.3-.3v-10.1c-3.6-.1-9.9-.9-13.3-4.4-4.7-4.9-3.9-15.1-3.7-17-.8-.2-2.8-.7-3.7-1.9-.4-.5-.5-1.1-.4-1.7.4-2.4,3.2-2.8,4.1-2.9,1-6.5,4-19.1,4-19.3,0-.1.2-.2.3-.2l31.4,2.5c.2,0,.3.1.3.3,0,0,0,4.9-.1,11.2,0,1.2.9,2.4,1.9,3.6,1.1,1.4,2.2,2.8,2.2,4.3,0,1.5-1.2,3-2.4,4.4-1,1.3-2,2.5-2.1,3.6-.1,3.9-.3,6.5-.4,8.1l4.1,19.5c0,0,0,.2,0,.3,0,0-.1.1-.2.1ZM342.6,230.1h21l-4.1-19.1s0,0,0,0,0,0,0,0c.1-1.5.3-4.2.4-8.1,0-1.3,1.1-2.6,2.2-3.9,1.1-1.3,2.2-2.7,2.3-4,0-1.3-1-2.7-2.1-3.9-1-1.3-2.1-2.7-2.1-4,0-5.4.1-9.8.1-10.9l-30.8-2.4c-.4,1.8-3.1,13.3-4,19.2,0,.1-.1.3-.3.3,0,0-3.4,0-3.8,2.4,0,.5,0,.9.3,1.3,1,1.3,3.6,1.7,3.6,1.7.2,0,.3.2.3.3,0,.1-1.3,11.7,3.5,16.8,3.4,3.5,9.7,4.1,13.2,4.2.2,0,.3.1.3.3,0,0,0,0,0,.1v10Z"></path><path class="cls-8" d="M328.6,190.3s1.7-3,5.5-2.5c3.9.5,4.4,3.1,4.4,3.1,0,0-1.7,3.1-5.2,2.7s-4.7-3.3-4.7-3.3h0Z"></path><g class="cls-12"><circle class="cls-1" cx="332" cy="191.2" r="2.5"></circle></g><path class="cls-1" d="M334.6,207.6c-.5,0-1.1-.2-1.6-.5-.1,0-.2-.3-.1-.4,0-.1.3-.2.4-.1.8.5,1.7.5,2.4,0,.8-.5,1.2-1.4,1.1-2.6,0-.2.1-.3.3-.3.2,0,.3.1.3.3,0,1.4-.4,2.6-1.4,3.2-.4.3-.9.4-1.4.4Z"></path><path class="cls-1" d="M338.3,187.2c0,0-.2,0-.2-.1-.7-1-2.1-1.7-3.9-1.9-1.9-.2-3.6.3-4.7,1.4-.1.1-.3.1-.4,0-.1-.1-.1-.3,0-.4,1.2-1.2,3.1-1.7,5.2-1.5,1.9.2,3.5,1,4.3,2.2,0,.1,0,.3,0,.4,0,0-.1,0-.2,0Z"></path><path class="cls-1" d="M334.1,187.8s1.9.1,3.1,1.2,1.8,2.1,2.2,2.2l-.6.6s-2.1-3.5-4.8-4.1h0Z"></path><g><path class="cls-4" d="M373,195.2c-.5,1-1,1.9-1.4,2.9-5.9,11.8-10.1,21.2-10.1,21.2l-3.8-16.9c2.3,0,7.5-5.5,3.6-10.4-3.3-4.1-7.1,2.6-8.4,3.7-.2.2-.5.4-.8.3-.3,0-.5-.4-.6-.8-1.1-4-1.3-8.3-.4-12.4-2.3,0-4.7.1-6.9-.4-2.2-.5-4.4-1.8-5.6-3.7-.1-.2-.2-.4-.4-.6,0,0-16.2,3.1-21.3-2.6-5.1-5.7,3.2-10.9,3.2-10.9,0,0,2.7-8.6,12.8-8.6,39.8,0,33.6,16.4,33.6,16.4,0,0,13.4,9.2,6.5,22.8h0Z"></path><path class="cls-1" d="M361.5,219.5s0,0,0,0c-.1,0-.2-.1-.3-.2l-3.8-16.9c0,0,0-.2,0-.2,0,0,.1-.1.2-.1,1.1,0,3.1-1.6,4.1-3.7.7-1.5,1.1-3.8-.7-6.2-.6-.8-1.3-1.2-2.1-1.2h0c-1.8,0-3.6,2.2-4.8,3.6-.5.6-.9,1-1.2,1.3-.2.2-.6.5-1,.4-.5-.1-.7-.7-.8-.9-1.1-4-1.3-8.2-.5-12.2-2.1,0-4.4,0-6.6-.4-2.6-.6-4.7-2-5.8-3.8h0c0-.2-.1-.3-.2-.4-1.8.3-16.5,2.8-21.4-2.7-1.3-1.5-1.9-3.1-1.7-4.8.5-3.5,4.2-6.1,4.9-6.5.4-1,3.5-8.7,13.1-8.7s27.3,1.6,32.6,9.1c2.4,3.4,1.7,6.6,1.4,7.5,1.6,1.2,12.9,10.2,6.5,23.1,0,0,0,0,0,0l-.5,1c-.3.6-.6,1.2-.9,1.8-5.8,11.7-10,21.1-10.1,21.2,0,.1-.2.2-.3.2ZM358.1,202.6l3.6,15.7c1.2-2.5,4.9-10.7,9.7-20.4.3-.6.6-1.2.9-1.8l.5-1s0,0,0,0c2.8-5.6,2.6-11-.7-16.2-2.4-3.9-5.7-6.2-5.8-6.2-.1,0-.2-.2-.1-.4,0,0,1.3-3.5-1.3-7.2-2.8-4-10.6-8.8-32.1-8.8s-7.5,1.4-10,4.2c-1.9,2.1-2.6,4.2-2.6,4.2,0,0,0,.1-.1.2,0,0-4.2,2.7-4.7,6.1-.2,1.5.3,2.9,1.5,4.3,4.9,5.5,20.8,2.5,21,2.5,0,0,.2,0,.3,0,.2.2.3.4.4.5h0c1.1,1.8,3.1,3.1,5.5,3.6,2.3.5,4.7.5,6.8.4,0,0,.2,0,.2.1,0,0,0,.2,0,.3-.8,4.1-.7,8.3.4,12.3,0,.3.2.5.3.5.2,0,.3-.1.5-.2.3-.2.6-.7,1.1-1.2,1.3-1.5,3.2-3.8,5.2-3.8h0c.9,0,1.8.5,2.5,1.4,1.6,2,1.9,4.4.8,6.8-1,2.2-2.9,3.8-4.3,4ZM373,195.2h0,0Z"></path></g><path class="cls-1" d="M338.1,178.3c0,0-.2,0-.2-.1-1.9-2.6-2.1-4.5-2.1-4.6,0-.2.1-.3.3-.3.2,0,.3.1.3.3,0,0,.2,1.8,2,4.3,0,.1,0,.3,0,.4,0,0-.1,0-.2,0Z"></path><g><path class="cls-1" d="M371.6,198c-5.9,11.8-10.1,21.2-10.1,21.2l-3.8-16.9c2.3,0,7.5-5.5,3.6-10.4-3.3-4.1-7.1,2.6-8.4,3.7-.2.2-.5.4-.8.3-.3,0-.5-.4-.6-.8-1.1-4-1.3-8.3-.4-12.4,4.7,0,15.3-1.3,15.3-1.3,0,0-1,3.5-1.4,8.5-.3,3.6,4.2,6.8,6.6,8.2h0Z"></path><path class="cls-1" d="M361.5,219.5s0,0,0,0c-.1,0-.2-.1-.3-.2l-3.8-16.9c0,0,0-.2,0-.2,0,0,.1-.1.2-.1,1.1,0,3.1-1.6,4.1-3.7.7-1.5,1.1-3.8-.7-6.2-.6-.8-1.3-1.2-2.1-1.2h0c-1.8,0-3.6,2.2-4.8,3.6-.5.6-.9,1-1.2,1.3-.2.2-.6.5-1,.4-.5-.1-.7-.7-.8-.9-1.1-4.1-1.3-8.4-.4-12.6,0-.1.1-.2.3-.2,4.6,0,15.2-1.3,15.3-1.3,0,0,.2,0,.3.1,0,0,0,.2,0,.3,0,0-1,3.6-1.4,8.4-.3,3.5,4.4,6.7,6.4,7.9,0,0,0,0,.1.1,0,0,0,.2,0,.3-5.8,11.7-10,21.1-10.1,21.2,0,.1-.2.2-.3.2ZM358.1,202.6l3.6,15.7c1.1-2.5,4.8-10.6,9.6-20.1-2.7-1.6-6.8-4.7-6.5-8.3.3-4,1-7,1.3-8.1-2,.2-10.4,1.2-14.6,1.3-.8,4-.6,8.2.5,12.1,0,.3.2.5.3.5.1,0,.4-.1.5-.2.3-.2.6-.7,1.1-1.2,1.3-1.5,3.2-3.8,5.2-3.8h0c.9,0,1.8.5,2.5,1.4,1.6,2,1.9,4.4.8,6.8-1,2.2-2.9,3.8-4.3,4Z"></path></g><path class="cls-1" d="M343.2,220.3c-.3,0-.6,0-.9,0-.2,0-.3-.2-.3-.3,0-.2.2-.3.3-.3,7.6.4,11.8-4.9,11.8-4.9.1-.1.3-.2.4,0,.1.1.2.3,0,.4,0,0-4.1,5.2-11.5,5.2Z"></path><path class="cls-1" d="M355.7,197.1s0,0-.1,0c-.2,0-.2-.2-.2-.4.7-1.7,1.8-2.9,3-3.4.7-.3,1.4-.3,2,0,.1,0,.2.3.1.4,0,.1-.2.2-.4.1-.4-.2-1-.2-1.5,0-.6.2-1.8.9-2.7,3,0,.1-.2.2-.3.2Z"></path><path class="cls-1" d="M358.6,198.8c0,0-.1,0-.2,0-.1,0-.2-.3,0-.4,1.1-1.8,0-4.5,0-4.6,0-.2,0-.3.2-.4.1,0,.3,0,.4.2,0,.1,1.3,3,0,5.1,0,0-.2.1-.3.1Z"></path><g><path class="cls-4" d="M218.6,282.1s3-24.9-18.2-24.7-27.6,10.3-27.8,24.7h46Z"></path><path class="cls-1" d="M218.6,282.4h-46c0,0-.2,0-.2,0,0,0,0-.1,0-.2.2-16.9,9.1-24.8,28.1-25,5.8,0,10.3,1.7,13.5,5.3,6.5,7.3,5.1,19.7,5.1,19.8,0,.2-.1.3-.3.3ZM172.9,281.8h45.5c.2-1.8.8-12.6-5-19-3.1-3.4-7.5-5.1-13-5.1-18.5.2-27.2,7.8-27.5,24.1Z"></path></g><g><path class="cls-1" d="M186.4,273.6c-1.2,2.5-1.1,4.2.7,4.6,1.8.5,2.9.6,2.9.6,0,0-.7,1.5-.6,3.2h6.9l-.8-10.8-8.9,2.2h0Z"></path><path class="cls-1" d="M196.1,282.4h-6.9c-.2,0-.3-.1-.3-.3,0-1.3.3-2.5.5-3-.5,0-1.3-.2-2.5-.6-.7-.2-1.2-.6-1.5-1.1-.4-.9-.2-2.2.6-3.9,0-.1.2-.2.3-.2h0l8.9-2.2c0,0,.2,0,.2,0,0,0,.1.1.1.2l.8,10.8c0,0,0,.2,0,.2,0,0-.1,0-.2,0ZM189.5,281.8h6.3l-.8-10.1-8.5,2.1c-.7,1.5-.9,2.6-.6,3.3.2.4.5.7,1.1.8,1.8.5,2.8.6,2.8.6,0,0,.2,0,.2.2s0,.2,0,.3c0,0-.6,1.3-.6,2.8Z"></path></g><g><path class="cls-1" d="M187.5,264.8c-2,2.7-1.5,4.9,1.6,5.4s4-1.7,4-1.7l-1.4-3-4.2-.7h0Z"></path><path class="cls-1" d="M189.9,270.6c-.3,0-.6,0-1,0-1.9-.3-2.6-1.1-2.8-1.8-.4-1.1,0-2.5,1.1-4.1,0-.1.2-.1.3-.1,0,0,0,0,0,0l4.1.7c0,0,.2,0,.2.2l1.4,3c0,0,0,.2,0,.2,0,0-.8,2-3.4,2ZM187.6,265.2c-.9,1.3-1.2,2.5-.9,3.3.3.7,1.1,1.2,2.4,1.4,2.5.4,3.4-1,3.6-1.4l-1.3-2.7-3.8-.6Z"></path></g><g><path class="cls-4" d="M362.7,356.3l-14.4,87.9h-145.7s1.2-31.3,9.1-49.9c7.9-18.6,47.3-30.7,47.3-30.7l18.5-7.3h85.1Z"></path><path class="cls-1" d="M348.4,444.5h-145.7c0,0-.2,0-.2,0s0-.1,0-.2c0-.3,1.3-31.5,9.2-50,7.9-18.5,47.1-30.8,47.5-30.9l18.5-7.3s0,0,.1,0h85.1c0,0,.2,0,.2.1s0,.2,0,.2l-14.4,87.9c0,.1-.1.3-.3.3ZM202.9,443.9h145.2l14.3-87.3h-84.7l-18.4,7.3c-.4.1-39.4,12.3-47.2,30.6-7.4,17.3-8.9,46.1-9.1,49.4Z"></path></g><path class="cls-2" d="M239.6,443.9c3-4.1,6.4-10.5,6.5-17.9.4-18.8,7.9-33.2,22.4-42.8l26.9,60.8h-55.8Z"></path><path class="cls-6" d="M237.5,260.1c-10.1-7.9-14.3-12.3-25.3-11.5-11,.8-21.9,3.3-22.9,6.3s5.7,3.4,5.7,3.4c0,0-6.5,4-8.2,7.6s4.5,2.4,4.5,2.4c0,0-7.2,5.3-4.8,7.8,2.4,2.5,6.9-1.1,6.9-1.1,0,0-5.4,6-1.3,7.7s6.5,1.9,9.6,5.8,4.9,6.4,4.9,6.4l30.9-35h0Z"></path><g class="cls-11"><path class="cls-2" d="M190,252.5c0,2.4,3.6,3.2,6.8,2.1,3.3-1.1,6.4-2.5,10.7-2.6,4.3,0,7.3,1.1,8.3,2.2s1.2,1.9-1.2,1c-2.4-1-4.9-2-8.4-1.3s-5.7,1.3-8.2,2.6c-2.5,1.2-4.4,2.9-4.4,2.9l-6.1,3.7s-1,3.9,1.2,3.5,4.1-2.1,7.5-3.8c3.4-1.7,5.4-2.6,8.2-2.8,2.9-.2,4.5,2,2.6,1.8-1.9-.3-4.4-.2-7,1.2s-4.4,2.3-6.5,3.9-4,2.8-4,2.8c0,0-3.1,2-3.8,3.6s-.2,3.4,3.8.9,5.8-3.4,9-4.4c3.3-1,3.9-.8,4.7,0s.1.9-1.6,1.2-3.9.8-5.5,1.9c-1.6,1.2-3.8,3.3-3.8,3.3l-2.7,3.4s2,2.5,7.3,2.1c5.3-.5,7.8,5.5,11.5,5.1s10.3-4.6,10.3-4.6l-12.8,15-16.3-7.2s-13.6-2.9-13.4-14.5l.2-11.6,13.6-11.2h0Z"></path></g><path class="cls-1" d="M206.6,295.3h0c0,0-.2,0-.2-.1,0,0-1.9-2.4-4.9-6.4-2.4-3.1-4.3-3.8-7.1-4.8-.7-.3-1.5-.6-2.4-.9-.9-.4-1.5-1-1.7-1.8-.3-1.6.8-3.6,1.7-4.9-1.6.9-4.1,1.8-5.8,0-.4-.5-.6-1-.6-1.7.2-2.1,3.1-4.7,4.5-5.9-1.2.1-3,.1-3.8-.8-.4-.5-.4-1.2,0-2.1,1.4-2.9,5.8-6.1,7.6-7.2-1.4-.2-3.9-.7-4.9-2-.4-.5-.4-1.1-.2-1.7,1-3.4,12.7-5.8,23.1-6.5,10.1-.7,14.6,2.9,22.8,9.4.9.7,1.8,1.4,2.7,2.1,0,0,0,0,0,0,.1.1.1.3,0,.4,0,0,0,0,0,0l-30.9,34.9c0,0-.1.1-.2.1ZM193.5,274.8c0,0,.2,0,.2,0,.1.1.1.3,0,.4,0,0-3.2,3.6-2.7,5.8.1.6.6,1.1,1.3,1.4.8.4,1.6.6,2.3.9,2.8,1,4.9,1.8,7.3,5,2.4,3.2,4.1,5.3,4.7,6.1l30.5-34.4c-.9-.7-1.7-1.3-2.5-2-8.3-6.6-12.5-9.9-22.4-9.3-12.1.9-21.8,3.5-22.6,6.1-.1.5,0,.9.2,1.2,1.1,1.6,5.2,1.8,5.3,1.8.1,0,.2,0,.3.2,0,.1,0,.3-.1.3,0,0-6.5,4-8.1,7.4-.3.7-.4,1.2,0,1.5.7.9,3.3.6,4.3.4.1,0,.3,0,.3.2,0,.1,0,.3,0,.4,0,0-5,3.7-5.2,6.2,0,.5,0,.9.4,1.2,2.2,2.3,6.5-1.1,6.5-1.1,0,0,.1,0,.2,0Z"></path><path class="cls-1" d="M195,258.6c0,0-.2,0-.2-.1-.1-.1,0-.3,0-.4,6.5-5.1,16.1-6.2,21-2.5.1.1.2.3,0,.4-.1.1-.3.2-.4,0-4.6-3.5-14-2.3-20.2,2.5,0,0-.1,0-.2,0Z"></path><path class="cls-1" d="M191.3,268.6c0,0-.2,0-.2-.1-.1-.1,0-.3,0-.4,4.3-3.3,12.2-8.6,16.4-6.5.1,0,.2.3.1.4,0,.2-.3.2-.4.1-2.9-1.4-8.6,1-15.8,6.5,0,0-.1,0-.2,0Z"></path><path class="cls-1" d="M193.5,275.4c0,0-.1,0-.2,0-.1-.1-.1-.3,0-.4,3.8-4.3,9.2-4.2,9.4-4.2.2,0,.3.1.3.3s-.2.3-.3.3c0,0-5.3,0-8.9,4,0,0-.1.1-.2.1Z"></path><g><path class="cls-8" d="M428.4,264.1v99.5h-127.7s-7.2,18.2-30.5,13.9c-24.1-4.4-63.5-82.6-63.5-82.6l26.7-30.2,4.2-4.8,40.1,30.4s9.5-28.1,30.3-45.4c20.8-17.3,56.5-25.7,79.9-15.5,23.5,10.2,40.5,34.5,40.5,34.5Z"></path><path class="cls-1" d="M276.9,378.5c-2.1,0-4.4-.2-6.8-.7-10.1-1.9-23.9-16.4-41-43.1-12.7-19.9-22.6-39.5-22.7-39.6,0-.1,0-.2,0-.3l30.9-34.9c.1-.1.3-.1.4,0l39.8,30.2c1.3-3.5,11-29.1,30.3-45.1,10.2-8.5,24.5-15.1,39.1-18.1,15.4-3.2,30-2.3,41.1,2.6,23.3,10.1,40.5,34.4,40.6,34.6,0,0,0,.1,0,.2v99.5c0,.2-.1.3-.3.3h-127.5c-.8,1.7-7.1,14.6-23.9,14.6ZM207,295c2.1,4.2,40.1,78,63.2,82.2,22.7,4.2,30.1-13.5,30.2-13.7,0-.1.2-.2.3-.2h127.4v-99.1c-1.1-1.5-17.9-24.6-40.3-34.4-22.1-9.6-57.8-2.7-79.6,15.5-20.5,17-30.1,45-30.2,45.2,0,0-.1.2-.2.2,0,0-.2,0-.3,0l-39.9-30.3-30.6,34.6Z"></path></g><g><path class="cls-1" d="M388.6,281.2c-22.1,28.8-26.5,44.9-32.7,59.7s-14.1,22.7-14.1,22.7h46.8v-82.4h0Z"></path><path class="cls-1" d="M388.6,364h-46.8c-.1,0-.2,0-.3-.2,0-.1,0-.2,0-.3s8-8.1,14-22.6c.9-2.2,1.8-4.4,2.7-6.7,5.3-13.4,11.2-28.5,30-53,0-.1.2-.1.3-.1.1,0,.2.2.2.3v82.4c0,.2-.1.3-.3.3ZM342.5,363.4h45.8v-81.2c-18.3,24-24.2,39-29.4,52.2-.9,2.3-1.8,4.5-2.7,6.8-5.2,12.6-11.8,20.3-13.7,22.3Z"></path></g><path class="cls-7" d="M275.6,297l-41.9-32.2,3.8-4.3,40.2,30.5v-.4c.2-.3,9.9-28.2,30.4-45.2,14.5-12.1,36.6-19.8,56.3-19.8s16.6,1.5,23.3,4.4c22.5,9.8,39.2,32.8,40.3,34.4v8c-2.2-2.2-4.6-5.4-7.1-9.5-13.1-20.9-33.1-31.5-59.4-31.5s-16,.9-24.8,2.9c-10.1,2.2-31.2,14.1-44.9,36.8-6.1,10-15,26.7-18.8,33.7l2.5-7.5h0Z"></path><path class="cls-1" d="M268.7,318.4s0,0,0,0c-.2,0-.3-.2-.2-.4,0,0,2.1-8.8,8.9-27.6,0-.2.2-.2.4-.2.2,0,.2.2.2.4-6.8,18.8-8.8,27.5-8.9,27.6,0,.1-.2.2-.3.2Z"></path><g><path class="cls-7" d="M478.6,335.1c-.1,4.8-.4,9.8-.8,15-4,56.5-13.8,93.8-39,94.2-20.2.3-125.6.1-166.4,0-10,0-16.1,0-16.1,0,0,0-9-64.2,24.2-69.2,33.2-5,71.1,1,82.3-32.7,11.1-33.7,27.7-89.2,69.1-86.3,37.7,2.6,48,31.5,46.7,79Z"></path><path class="cls-1" d="M381.3,444.7c-35.2,0-78.4,0-109-.1h-16.1c-.2,0-.3-.1-.3-.3,0-.2-2.2-16.3-.3-32.8,2.5-22,11.1-34.7,24.8-36.8,7.1-1.1,14.5-1.6,21.7-2.2,26.6-2.1,51.7-4,60.4-30.3l1.3-3.9c11.2-34,28.1-85.4,68.2-82.6,34.4,2.4,48.5,26.1,47,79.3h0c-.1,4.6-.4,9.7-.8,15-4.5,65-16.7,94.1-39.3,94.4-8.2.1-30.5.2-57.5.2ZM256.5,443.9h15.9c54,.1,147.4.3,166.4,0,22.3-.3,34.2-29.3,38.7-93.9.4-5.3.6-10.4.8-15,1.5-52.8-12.4-76.3-46.4-78.7-39.7-2.8-56.5,48.3-67.6,82.2l-1.3,3.9c-8.8,26.7-34.1,28.6-60.9,30.7-7.1.6-14.5,1.1-21.6,2.2-31.5,4.8-24.6,64.2-24,68.6ZM478.6,335.1h0,0Z"></path></g><g><path class="cls-1" d="M316.7,318.2c-.4,2.3-4.8,29.7-11.7,45.4h-4.4c6.6-12.4,12.1-29.1,16-45.4Z"></path><path class="cls-1" d="M305,364h-4.3c-.1,0-.2,0-.3-.1,0,0,0-.2,0-.3,6-11.3,11.7-27.4,16-45.3,0-.2.2-.3.4-.2.2,0,.3.2.2.3-.2,1.2-4.6,29.3-11.7,45.5,0,.1-.2.2-.3.2ZM301.1,363.4h3.7c4.7-10.9,8.3-27.4,10.2-37.1-3.9,14.6-8.8,27.5-13.8,37.1Z"></path></g><path class="cls-1" d="M316.7,318.5s0,0,0,0c-.2,0-.3-.2-.2-.3,0,0,0,0,0,0,0,0,0,0,0-.1,5.4-22.7,7.5-43.7,5.1-51.3,0-.2,0-.3.2-.4.2,0,.3,0,.4.2,2.4,7.6.3,28.9-5.1,51.7,0,0,0,0,0,0,0,.1-.2.2-.3.2Z"></path><path class="cls-2" d="M245.1,426.5c0-.6-1.1-.6-1,0,.4,4.8-.3,9.6-2,14.1-.2.6.7.9,1,.3,1.7-4.6,2.4-9.5,2-14.4h0Z"></path><path class="cls-2" d="M218.3,390.8c-2.4,2.3-4.1,5.3-5,8.5-.2.6.8.9,1,.3.9-3,2.5-5.8,4.7-8,.5-.5-.2-1.2-.7-.7h0Z"></path><path class="cls-2" d="M381,444.1c-35.3,0-78,0-108-.1,15.5-14.9,65.5-19.8,105.7-23.8,16.3-1.6,30.3-3,39.9-4.8,32.3-6.1,53.6-32,59.2-71.5-.1,2-.2,4.1-.4,6.2-4.5,64.6-16.5,93.6-38.7,93.9-7.4.1-26.8.2-57.7.2h0Z"></path><path class="cls-1" d="M174.5,271c0,0-.1,0-.2,0-.1-.1-.1-.3,0-.4.2-.2,4.1-5,8.4-6.7.2,0,.3,0,.4.2,0,.2,0,.3-.2.4-4.1,1.6-8.1,6.5-8.1,6.5,0,0-.1.1-.2.1Z"></path></g><g id="mug"><rect class="cls-4" x="100" y="243.8" width="38.3" height="38.3"></rect><g class="cls-14"><path class="cls-2" d="M132.4,252.3c0,6.7,3.4,8.3,3.5,12.5,0,2.6.1,6,.2,8.1,0,2.3-1.4,4.5-3.6,5.2-.5.1-1,.2-1.6.2h-26.7s-5.7-.1-5.9-7.7-1.1,14-1.1,14l52.5-.9-6.4-29.4-10.8-2.2"></path></g><path class="cls-1" d="M138.3,282.4h-38.3c-.2,0-.3-.1-.3-.3v-38.3c0-.2.1-.3.3-.3h38.3c.2,0,.3.1.3.3v38.3c0,.2-.1.3-.3.3ZM100.3,281.8h37.7v-37.7h-37.7v37.7Z"></path><g><path class="cls-4" d="M139,278.4h-4.1c-1.4,0-2.5-1.1-2.5-2.5s1.1-2.5,2.5-2.5h4.1c1.7,0,3.1-1.4,3.1-3.1v-12.4c0-1.7-1.4-3.1-3.1-3.1h-4.1c-1.4,0-2.5-1.1-2.5-2.5s1.1-2.5,2.5-2.5h4.1c4.5,0,8.1,3.6,8.1,8.1v12.4c0,4.5-3.6,8.1-8.1,8.1Z"></path><path class="cls-1" d="M139,278.7h-4.1c-1.5,0-2.8-1.3-2.8-2.8s1.3-2.8,2.8-2.8h4.1c1.5,0,2.8-1.3,2.8-2.8v-12.4c0-1.5-1.3-2.8-2.8-2.8h-4.1c-1.5,0-2.8-1.3-2.8-2.8s1.3-2.8,2.8-2.8h4.1c4.6,0,8.4,3.8,8.4,8.4v12.4c0,4.6-3.8,8.4-8.4,8.4ZM134.9,273.7c-1.2,0-2.2,1-2.2,2.2s1,2.2,2.2,2.2h4.1c4.3,0,7.8-3.5,7.8-7.8v-12.4c0-4.3-3.5-7.8-7.8-7.8h-4.1c-1.2,0-2.2,1-2.2,2.2s1,2.2,2.2,2.2h4.1c1.9,0,3.4,1.5,3.4,3.4v12.4c0,1.9-1.5,3.4-3.4,3.4h-4.1Z"></path></g></g></svg>